<?xml version="1.0" encoding="UTF-8"?>
<svg xmlns="http://www.w3.org/2000/svg" width="50.8mm" height="128mm" viewBox="0 0 144 362.83">
  <g id="a" data-name="Layer 1">
    <rect width="144" height="362.83" style="fill: #b5b5b5;"/>
    <rect x="111.4" y="163.51" width="28.6" height="185.4" rx="14.3" ry="14.3" style="fill: #1f1f1f;"/>
  </g>
  <g id="b" data-name="Text">
    <g id="c" data-name="text815" style="isolation: isolate;">
      <g>
        <path d="m54.92,13.1v12.94h-2.28v-12.94h-3.47v-2.14h9.2v2.14h-3.46Z"/>
        <path d="m68.44,22.38h-6.46l-1.68,3.66h-2.45l7.46-16.03,7.2,16.03h-2.49l-1.58-3.66Zm-.93-2.14l-2.24-5.13-2.34,5.13h4.58Z"/>
        <path d="m76.67,19.91v6.12h-2.28v-15.08h2.58c1.26,0,2.22.09,2.86.26.65.18,1.22.51,1.72,1,.87.85,1.3,1.91,1.3,3.2,0,1.38-.46,2.47-1.39,3.28s-2.17,1.21-3.74,1.21h-1.05Zm0-2.11h.85c2.09,0,3.13-.8,3.13-2.41s-1.08-2.33-3.23-2.33h-.75v4.75Z"/>
        <path d="m93.72,13.21l-1.85,1.09c-.34-.6-.67-.99-.99-1.17-.33-.21-.75-.31-1.26-.31-.63,0-1.16.18-1.57.54-.42.35-.62.79-.62,1.33,0,.74.55,1.33,1.64,1.78l1.5.62c1.22.49,2.12,1.1,2.69,1.81s.85,1.59.85,2.62c0,1.39-.46,2.53-1.39,3.44-.93.91-2.09,1.37-3.47,1.37-1.31,0-2.39-.39-3.24-1.16-.84-.77-1.36-1.87-1.57-3.27l2.3-.51c.1.89.29,1.5.55,1.84.47.65,1.15.98,2.05.98.71,0,1.3-.24,1.77-.71s.7-1.08.7-1.81c0-.29-.04-.56-.12-.81s-.21-.47-.38-.67-.4-.4-.67-.58-.6-.35-.98-.51l-1.46-.61c-2.06-.87-3.1-2.15-3.1-3.83,0-1.13.43-2.08,1.3-2.84.87-.77,1.94-1.15,3.23-1.15,1.74,0,3.1.85,4.07,2.54Z"/>
      </g>
    </g>
    <g>
      <path d="m51.07,53.41v-8.29h1.25c.56,0,1,.04,1.33.13.33.09.61.23.84.44.23.21.42.47.55.79.14.32.21.64.21.97,0,.59-.23,1.1-.68,1.51.44.15.79.41,1.04.79.26.37.39.81.39,1.3,0,.65-.23,1.2-.69,1.64-.28.28-.59.47-.93.57-.38.1-.85.16-1.41.16h-1.9Zm1.25-4.73h.39c.47,0,.81-.1,1.02-.31.22-.21.33-.51.33-.91s-.11-.69-.33-.89c-.22-.2-.54-.3-.97-.3h-.44v2.41Zm0,3.56h.77c.57,0,.98-.11,1.25-.33.28-.24.42-.54.42-.91s-.13-.66-.4-.9c-.26-.24-.73-.36-1.4-.36h-.63v2.51Z"/>
      <path d="m58.83,45.12v5c0,.71.12,1.23.35,1.56.35.48.84.71,1.47.71s1.12-.24,1.47-.71c.23-.32.35-.84.35-1.56v-5h1.25v5.34c0,.87-.27,1.59-.82,2.16-.61.63-1.36.95-2.26.95s-1.64-.31-2.25-.95c-.54-.57-.82-1.29-.82-2.16v-5.34h1.25Z"/>
      <path d="m69.84,46.29h-2.89v1.99h2.79v1.18h-2.79v3.95h-1.25v-8.29h4.14v1.18Z"/>
      <path d="m75.43,46.29h-2.89v1.99h2.79v1.18h-2.79v3.95h-1.25v-8.29h4.14v1.18Z"/>
      <path d="m81.46,46.29h-3.32v1.99h3.23v1.18h-3.23v2.77h3.32v1.18h-4.58v-8.29h4.58v1.18Z"/>
      <path d="m85.91,49.88l2.57,3.53h-1.53l-2.37-3.39h-.23v3.39h-1.25v-8.29h1.47c1.1,0,1.89.21,2.37.62.54.46.81,1.06.81,1.82,0,.59-.17,1.09-.5,1.51-.34.42-.78.69-1.33.81Zm-1.56-.95h.4c1.18,0,1.78-.45,1.78-1.36,0-.85-.58-1.27-1.73-1.27h-.45v2.63Z"/>
    </g>
    <g>
      <path d="m22.39,105.54v9.07h-1.21v-9.07h1.21Z"/>
      <path d="m28.68,112.28h-3.75c.03.43.17.77.42,1.03.25.25.56.38.95.38.3,0,.55-.07.75-.21.19-.14.41-.41.66-.79l1.02.57c-.16.27-.32.5-.5.69-.18.19-.36.35-.56.47-.2.12-.42.21-.65.27s-.49.09-.76.09c-.78,0-1.41-.25-1.88-.75-.47-.5-.71-1.17-.71-2.01s.23-1.5.69-2.01c.46-.5,1.07-.76,1.84-.76s1.38.25,1.83.74c.44.49.67,1.16.67,2.02v.28Zm-1.25-.99c-.17-.64-.57-.97-1.22-.97-.15,0-.28.02-.41.07-.13.04-.25.11-.35.19-.11.08-.2.19-.27.3s-.13.25-.17.4h2.43Z"/>
      <path d="m30,109.38h1.21v.48c.42-.42.9-.63,1.43-.63.61,0,1.08.19,1.42.57.29.33.44.86.44,1.6v3.21h-1.21v-2.92c0-.52-.07-.87-.21-1.07-.14-.2-.39-.3-.76-.3-.4,0-.69.13-.85.4-.16.26-.25.72-.25,1.37v2.52h-1.21v-5.23Z"/>
      <path d="m41.09,114.48c0,.25,0,.46-.02.65-.02.19-.04.35-.07.5-.09.39-.25.73-.5,1.02-.47.54-1.12.82-1.95.82-.7,0-1.27-.19-1.72-.56-.47-.39-.73-.92-.81-1.61h1.21c.05.26.12.46.23.6.25.33.62.49,1.1.49.88,0,1.33-.54,1.33-1.63v-.73c-.48.49-1.03.74-1.66.74-.71,0-1.3-.26-1.75-.77-.46-.52-.69-1.18-.69-1.96s.21-1.41.64-1.94c.46-.57,1.06-.85,1.82-.85.66,0,1.21.25,1.64.74v-.59h1.21v5.11Zm-1.16-2.48c0-.51-.14-.92-.41-1.22-.28-.31-.63-.47-1.06-.47-.46,0-.82.17-1.08.51-.24.3-.36.7-.36,1.18s.12.87.36,1.17c.26.33.62.5,1.08.5s.83-.17,1.1-.5c.25-.3.37-.69.37-1.17Z"/>
      <path d="m43.86,110.5v4.1h-1.21v-4.1h-.52v-1.13h.52v-1.92h1.21v1.92h.94v1.13h-.94Z"/>
      <path d="m45.85,105.54h1.21v4.28c.43-.39.9-.58,1.42-.58.59,0,1.06.19,1.42.57.3.33.45.86.45,1.6v3.21h-1.21v-3.09c0-.42-.07-.72-.22-.91-.15-.19-.39-.28-.72-.28-.42,0-.72.13-.89.39-.17.27-.25.72-.25,1.36v2.53h-1.21v-9.07Z"/>
    </g>
    <g>
      <path d="m84.42,110.5v4.1h-1.21v-4.1h-.43v-1.13h.43v-2.02c0-.66.12-1.12.34-1.4.32-.38.77-.57,1.38-.57.21,0,.49.06.81.19v1.24l-.12-.06c-.26-.13-.48-.2-.64-.2-.21,0-.36.08-.43.23-.08.15-.11.44-.11.87v1.72h1.32v1.13h-1.32Z"/>
      <path d="m91.36,112.28h-3.75c.03.43.17.77.42,1.03.25.25.56.38.95.38.3,0,.55-.07.75-.21.19-.14.41-.41.66-.79l1.02.57c-.16.27-.32.5-.5.69-.17.19-.36.35-.56.47-.2.12-.42.21-.65.27s-.49.09-.76.09c-.78,0-1.41-.25-1.88-.75-.47-.5-.71-1.17-.71-2.01s.23-1.5.69-2.01c.46-.5,1.07-.76,1.84-.76s1.38.25,1.83.74c.44.49.67,1.16.67,2.02v.28Zm-1.25-.99c-.17-.64-.57-.97-1.22-.97-.15,0-.29.02-.41.07-.13.04-.25.11-.35.19-.11.08-.2.19-.27.3-.07.12-.13.25-.17.4h2.43Z"/>
      <path d="m97.45,112.28h-3.75c.03.43.17.77.42,1.03.25.25.56.38.95.38.3,0,.55-.07.75-.21.19-.14.41-.41.66-.79l1.02.57c-.16.27-.32.5-.5.69-.17.19-.36.35-.56.47-.2.12-.42.21-.65.27-.23.06-.49.09-.76.09-.78,0-1.41-.25-1.88-.75-.47-.5-.71-1.17-.71-2.01s.23-1.5.69-2.01c.46-.5,1.07-.76,1.84-.76s1.38.25,1.83.74c.44.49.67,1.16.67,2.02v.28Zm-1.25-.99c-.17-.64-.57-.97-1.22-.97-.15,0-.29.02-.41.07-.13.04-.25.11-.35.19-.11.08-.2.19-.27.3s-.13.25-.17.4h2.43Z"/>
      <path d="m102.62,105.54h1.21v9.07h-1.21v-.55c-.48.47-1.01.7-1.62.7-.72,0-1.31-.26-1.78-.78-.47-.53-.7-1.2-.7-2s.23-1.43.7-1.96c.47-.53,1.05-.79,1.76-.79.61,0,1.16.25,1.64.75v-4.45Zm-2.87,6.44c0,.5.13.91.4,1.22.28.32.62.48,1.04.48.45,0,.81-.15,1.08-.46.28-.32.41-.72.41-1.21s-.14-.9-.41-1.21c-.28-.31-.63-.47-1.07-.47-.42,0-.76.16-1.04.47-.28.32-.41.71-.41,1.18Z"/>
      <path d="m106.57,105.54v4.45c.48-.5,1.03-.75,1.64-.75.71,0,1.29.26,1.76.79.47.52.7,1.17.7,1.96s-.24,1.47-.71,2c-.47.52-1.06.78-1.78.78-.61,0-1.15-.23-1.62-.7v.55h-1.21v-9.07h1.21Zm2.87,6.49c0-.5-.14-.91-.41-1.22-.28-.32-.62-.48-1.04-.48-.44,0-.81.16-1.08.47-.28.31-.41.71-.41,1.2s.14.92.41,1.22c.27.31.63.47,1.07.47.42,0,.77-.16,1.04-.47.28-.31.42-.71.42-1.18Z"/>
      <path d="m115.81,109.38h1.21v5.23h-1.21v-.55c-.5.47-1.03.7-1.61.7-.72,0-1.32-.26-1.79-.78-.47-.53-.7-1.2-.7-2s.23-1.44.7-1.96,1.06-.78,1.76-.78c.61,0,1.16.25,1.64.75v-.61Zm-2.87,2.6c0,.5.13.91.4,1.22.28.32.62.48,1.04.48.45,0,.81-.15,1.08-.46.28-.32.41-.72.41-1.21s-.14-.9-.41-1.21c-.28-.31-.63-.47-1.07-.47-.42,0-.76.16-1.04.47-.28.32-.41.71-.41,1.18Z"/>
      <path d="m122.62,109.6v1.61c-.28-.34-.52-.57-.74-.69-.21-.13-.47-.19-.76-.19-.46,0-.83.16-1.13.48s-.45.72-.45,1.2.14.89.43,1.21c.29.31.67.47,1.12.47.29,0,.55-.06.77-.19.21-.12.47-.36.76-.71v1.6c-.49.25-.98.38-1.47.38-.81,0-1.49-.26-2.03-.78-.54-.53-.82-1.18-.82-1.96s.28-1.44.83-1.98c.55-.54,1.23-.81,2.03-.81.52,0,1,.12,1.46.37Z"/>
      <path d="m125.29,105.54v5.53l1.7-1.69h1.62l-2.27,2.2,2.44,3.03h-1.57l-1.73-2.21-.19.19v2.01h-1.21v-9.07h1.21Z"/>
    </g>
    <g>
      <path d="m52.92,145.46l2.57,3.53h-1.53l-2.37-3.39h-.23v3.39h-1.25v-8.29h1.47c1.1,0,1.89.21,2.37.62.54.46.81,1.06.81,1.82,0,.59-.17,1.09-.5,1.51s-.78.69-1.33.81Zm-1.56-.95h.4c1.19,0,1.78-.45,1.78-1.36,0-.85-.58-1.27-1.73-1.27h-.45v2.63Z"/>
      <path d="m61.31,141.87h-3.32v1.99h3.23v1.18h-3.23v2.77h3.32v1.18h-4.58v-8.29h4.58v1.18Z"/>
      <path d="m63.38,140.7l2.29,5.75,2.33-5.75h1.37l-3.72,8.92-3.64-8.92h1.37Z"/>
      <path d="m74.97,141.87h-3.32v1.99h3.23v1.18h-3.23v2.77h3.32v1.18h-4.58v-8.29h4.58v1.18Z"/>
      <path d="m79.42,145.46l2.57,3.53h-1.53l-2.37-3.39h-.23v3.39h-1.25v-8.29h1.47c1.1,0,1.89.21,2.37.62.54.46.81,1.06.81,1.82,0,.59-.17,1.09-.5,1.51-.34.42-.78.69-1.33.81Zm-1.56-.95h.4c1.19,0,1.78-.45,1.78-1.36,0-.85-.58-1.27-1.73-1.27h-.45v2.63Z"/>
      <path d="m87.93,141.93l-1.02.6c-.19-.33-.37-.54-.54-.64-.18-.11-.41-.17-.69-.17-.35,0-.64.1-.86.3-.23.19-.34.44-.34.73,0,.4.3.73.9.98l.83.34c.67.27,1.17.6,1.48,1,.31.39.47.87.47,1.44,0,.76-.25,1.39-.76,1.89-.51.5-1.15.75-1.91.75-.72,0-1.31-.21-1.78-.64-.46-.43-.75-1.03-.86-1.8l1.27-.28c.06.49.16.82.3,1.01.26.36.63.54,1.13.54.39,0,.71-.13.97-.39s.39-.59.39-.99c0-.16-.02-.31-.07-.44-.04-.13-.12-.26-.21-.37-.09-.11-.22-.22-.37-.32-.15-.1-.33-.19-.54-.28l-.8-.33c-1.14-.48-1.7-1.18-1.7-2.11,0-.62.24-1.14.71-1.56.48-.42,1.07-.63,1.78-.63.96,0,1.7.47,2.24,1.4Z"/>
      <path d="m94.23,141.87h-3.32v1.99h3.23v1.18h-3.23v2.77h3.32v1.18h-4.58v-8.29h4.58v1.18Z"/>
    </g>
    <g>
      <path d="m54.18,193.45v9.07h-1.21v-9.07h1.21Z"/>
      <path d="m55.46,199.86c0-.75.27-1.4.81-1.93.54-.53,1.2-.79,1.98-.79s1.44.27,1.99.8c.54.53.81,1.19.81,1.97s-.27,1.44-.81,1.97c-.54.53-1.21.79-2,.79s-1.44-.27-1.97-.81c-.53-.53-.79-1.2-.79-2Zm1.24.02c0,.52.14.94.42,1.24.29.31.66.46,1.13.46s.85-.15,1.13-.46c.28-.3.42-.71.42-1.22s-.14-.92-.42-1.22c-.29-.31-.66-.46-1.13-.46s-.84.15-1.12.46c-.29.31-.43.71-.43,1.19Z"/>
      <path d="m66.4,197.51v1.61c-.28-.34-.52-.57-.74-.69-.21-.13-.47-.19-.76-.19-.45,0-.83.16-1.13.48-.3.32-.45.72-.45,1.2s.15.89.44,1.21c.29.31.67.47,1.12.47.29,0,.55-.06.77-.19.21-.12.47-.36.76-.71v1.6c-.49.25-.98.38-1.47.38-.81,0-1.49-.26-2.03-.78-.54-.53-.82-1.18-.82-1.96s.28-1.44.83-1.98,1.23-.81,2.03-.81c.52,0,1,.12,1.46.37Z"/>
      <path d="m71.42,197.29h1.21v5.23h-1.21v-.55c-.5.47-1.03.7-1.61.7-.72,0-1.32-.26-1.79-.78-.47-.53-.7-1.2-.7-2s.23-1.44.7-1.96c.47-.52,1.06-.78,1.76-.78.61,0,1.15.25,1.64.75v-.61Zm-2.87,2.6c0,.5.13.91.4,1.22.28.32.62.48,1.04.48.45,0,.81-.15,1.08-.46.28-.32.41-.72.41-1.21s-.14-.9-.41-1.21c-.28-.31-.63-.47-1.07-.47-.42,0-.76.16-1.04.47-.28.32-.41.71-.41,1.18Z"/>
      <path d="m75.41,198.41v4.1h-1.21v-4.1h-.52v-1.13h.52v-1.92h1.21v1.92h.94v1.13h-.94Z"/>
      <path d="m76.99,195.11c0-.21.08-.39.23-.55s.34-.23.55-.23.4.08.56.23c.15.15.23.33.23.55s-.08.41-.23.56c-.15.15-.33.23-.55.23s-.4-.08-.56-.23-.23-.34-.23-.56Zm1.39,2.17v5.23h-1.21v-5.23h1.21Z"/>
      <path d="m79.66,199.86c0-.75.27-1.4.81-1.93.54-.53,1.2-.79,1.98-.79s1.44.27,1.99.8c.54.53.81,1.19.81,1.97s-.27,1.44-.81,1.97c-.54.53-1.21.79-2,.79s-1.44-.27-1.97-.81c-.53-.53-.79-1.2-.79-2Zm1.24.02c0,.52.14.94.42,1.24.29.31.66.46,1.13.46s.85-.15,1.13-.46c.28-.3.42-.71.42-1.22s-.14-.92-.42-1.22c-.29-.31-.66-.46-1.13-.46s-.84.15-1.12.46c-.29.31-.43.71-.43,1.19Z"/>
      <path d="m86.52,197.29h1.21v.48c.42-.42.9-.63,1.43-.63.61,0,1.08.19,1.42.57.29.33.44.86.44,1.6v3.21h-1.21v-2.92c0-.52-.07-.87-.21-1.07-.14-.2-.39-.3-.76-.3-.4,0-.69.13-.85.4-.16.26-.25.72-.25,1.37v2.52h-1.21v-5.23Z"/>
    </g>
    <g>
      <path d="m54.18,276.23v9.07h-1.21v-9.07h1.21Z"/>
      <path d="m55.46,282.65c0-.75.27-1.4.81-1.93.54-.53,1.2-.79,1.98-.79s1.44.27,1.99.8c.54.53.81,1.19.81,1.97s-.27,1.44-.81,1.97c-.54.53-1.21.79-2,.79s-1.44-.27-1.97-.81c-.53-.53-.79-1.2-.79-2Zm1.24.02c0,.52.14.94.42,1.24.29.31.66.46,1.13.46s.85-.15,1.13-.46c.28-.3.42-.71.42-1.22s-.14-.92-.42-1.22c-.29-.31-.66-.46-1.13-.46s-.84.15-1.12.46c-.29.31-.43.71-.43,1.19Z"/>
      <path d="m66.4,280.3v1.61c-.28-.34-.52-.57-.74-.69-.21-.13-.47-.19-.76-.19-.45,0-.83.16-1.13.48-.3.32-.45.72-.45,1.2s.15.89.44,1.21c.29.31.67.47,1.12.47.29,0,.55-.06.77-.19.21-.12.47-.36.76-.71v1.6c-.49.25-.98.38-1.47.38-.81,0-1.49-.26-2.03-.78-.54-.53-.82-1.18-.82-1.96s.28-1.44.83-1.98,1.23-.81,2.03-.81c.52,0,1,.12,1.46.37Z"/>
      <path d="m71.42,280.07h1.21v5.23h-1.21v-.55c-.5.47-1.03.7-1.61.7-.72,0-1.32-.26-1.79-.78-.47-.53-.7-1.2-.7-2s.23-1.44.7-1.96c.47-.52,1.06-.78,1.76-.78.61,0,1.15.25,1.64.75v-.61Zm-2.87,2.6c0,.5.13.91.4,1.22.28.32.62.48,1.04.48.45,0,.81-.15,1.08-.46.28-.32.41-.72.41-1.21s-.14-.9-.41-1.21c-.28-.31-.63-.47-1.07-.47-.42,0-.76.16-1.04.47-.28.32-.41.71-.41,1.18Z"/>
      <path d="m75.41,281.2v4.1h-1.21v-4.1h-.52v-1.13h.52v-1.92h1.21v1.92h.94v1.13h-.94Z"/>
      <path d="m76.99,277.9c0-.21.08-.39.23-.55s.34-.23.55-.23.4.08.56.23c.15.15.23.33.23.55s-.08.41-.23.56c-.15.15-.33.23-.55.23s-.4-.08-.56-.23-.23-.34-.23-.56Zm1.39,2.17v5.23h-1.21v-5.23h1.21Z"/>
      <path d="m79.66,282.65c0-.75.27-1.4.81-1.93.54-.53,1.2-.79,1.98-.79s1.44.27,1.99.8c.54.53.81,1.19.81,1.97s-.27,1.44-.81,1.97c-.54.53-1.21.79-2,.79s-1.44-.27-1.97-.81c-.53-.53-.79-1.2-.79-2Zm1.24.02c0,.52.14.94.42,1.24.29.31.66.46,1.13.46s.85-.15,1.13-.46c.28-.3.42-.71.42-1.22s-.14-.92-.42-1.22c-.29-.31-.66-.46-1.13-.46s-.84.15-1.12.46c-.29.31-.43.71-.43,1.19Z"/>
      <path d="m86.52,280.07h1.21v.48c.42-.42.9-.63,1.43-.63.61,0,1.08.19,1.42.57.29.33.44.86.44,1.6v3.21h-1.21v-2.92c0-.52-.07-.87-.21-1.07-.14-.2-.39-.3-.76-.3-.4,0-.69.13-.85.4-.16.26-.25.72-.25,1.37v2.52h-1.21v-5.23Z"/>
    </g>
    <g>
      <path d="m47.22,223.71h-2.89v1.99h2.79v1.18h-2.79v3.95h-1.25v-8.29h4.14v1.18Z"/>
      <path d="m48.27,226.64c0-1.17.43-2.17,1.28-3.01.85-.84,1.88-1.26,3.07-1.26s2.19.42,3.04,1.27c.85.84,1.27,1.86,1.27,3.04s-.43,2.2-1.28,3.04c-.86.83-1.89,1.25-3.1,1.25-1.07,0-2.03-.37-2.88-1.11-.94-.82-1.41-1.89-1.41-3.22Zm1.26.02c0,.92.31,1.67.92,2.26.61.59,1.32.89,2.12.89.87,0,1.6-.3,2.2-.9.6-.61.9-1.35.9-2.22s-.3-1.62-.89-2.22c-.59-.6-1.31-.9-2.18-.9s-1.59.3-2.19.9c-.59.59-.89,1.33-.89,2.2Z"/>
      <path d="m61.32,227.29l2.57,3.53h-1.53l-2.37-3.39h-.23v3.39h-1.25v-8.29h1.47c1.1,0,1.89.21,2.37.62.54.46.81,1.06.81,1.82,0,.59-.17,1.09-.5,1.51-.34.42-.78.69-1.33.81Zm-1.56-.95h.4c1.19,0,1.78-.45,1.78-1.36,0-.85-.58-1.27-1.73-1.27h-.45v2.63Z"/>
      <path d="m65.24,222.53l2.16,5.54,2.26-5.95,2.16,5.95,2.29-5.54h1.36l-3.71,8.82-2.13-5.88-2.22,5.88-3.52-8.83h1.36Z"/>
      <path d="m80.67,228.81h-3.55l-.92,2.01h-1.35l4.1-8.81,3.96,8.81h-1.37l-.87-2.01Zm-.51-1.18l-1.23-2.82-1.29,2.82h2.52Z"/>
      <path d="m86.75,227.29l2.57,3.53h-1.53l-2.37-3.39h-.23v3.39h-1.25v-8.29h1.47c1.1,0,1.89.21,2.37.62.54.46.81,1.06.81,1.82,0,.59-.17,1.09-.5,1.51-.34.42-.78.69-1.33.81Zm-1.56-.95h.4c1.19,0,1.78-.45,1.78-1.36,0-.85-.58-1.27-1.73-1.27h-.45v2.63Z"/>
      <path d="m90.57,230.83v-8.29h1.74c.83,0,1.49.08,1.98.25.52.16.99.44,1.41.82.86.78,1.28,1.81,1.28,3.08s-.45,2.31-1.34,3.09c-.45.39-.92.67-1.41.82-.46.15-1.11.23-1.95.23h-1.72Zm1.25-1.18h.56c.56,0,1.03-.06,1.4-.18.37-.12.71-.32,1.01-.6.62-.56.92-1.29.92-2.2s-.3-1.65-.91-2.21c-.55-.5-1.36-.76-2.42-.76h-.56v5.94Z"/>
    </g>
    <g>
      <path d="m118.4,200.63c0-.75.27-1.4.81-1.93.54-.53,1.2-.79,1.98-.79s1.44.27,1.99.8c.54.53.81,1.19.81,1.97s-.27,1.44-.81,1.97c-.54.53-1.21.79-2,.79s-1.44-.27-1.97-.81c-.53-.53-.79-1.2-.79-2Zm1.24.02c0,.52.14.94.42,1.24.29.31.66.46,1.13.46s.85-.15,1.13-.46c.28-.3.42-.71.42-1.22s-.14-.92-.42-1.22c-.29-.31-.66-.46-1.13-.46s-.84.15-1.12.46c-.29.31-.43.71-.43,1.19Z" style="fill: #fff;"/>
      <path d="m126.47,198.05v3c0,.87.34,1.3,1.03,1.3s1.03-.43,1.03-1.3v-3h1.21v3.03c0,.42-.05.78-.16,1.08-.1.27-.27.52-.52.74-.41.35-.93.53-1.56.53s-1.14-.18-1.55-.53c-.25-.22-.43-.46-.53-.74-.1-.24-.15-.6-.15-1.08v-3.03h1.21Z" style="fill: #fff;"/>
      <path d="m132.5,199.18v4.1h-1.21v-4.1h-.52v-1.13h.52v-1.92h1.21v1.92h.94v1.13h-.94Z" style="fill: #fff;"/>
    </g>
    <g>
      <path d="m9.51,330.23c0-.21.08-.39.23-.55.15-.15.34-.23.55-.23s.4.08.56.23c.15.15.23.33.23.55s-.08.41-.23.56c-.15.15-.33.23-.55.23s-.4-.08-.56-.23c-.15-.15-.23-.34-.23-.56Zm1.39,2.17v5.23h-1.21v-5.23h1.21Z"/>
      <path d="m12.43,332.4h1.21v.48c.42-.42.9-.63,1.43-.63.61,0,1.08.19,1.42.57.29.33.44.86.44,1.6v3.21h-1.21v-2.92c0-.52-.07-.87-.21-1.07-.14-.2-.39-.3-.76-.3-.4,0-.69.13-.85.4-.16.26-.25.72-.25,1.37v2.52h-1.21v-5.23Z"/>
      <path d="m19.8,340.48h-1.21v-8.08h1.21v.57c.48-.48,1.02-.71,1.62-.71.72,0,1.31.26,1.78.79.47.53.71,1.19.71,1.99s-.23,1.44-.7,1.96c-.47.52-1.05.78-1.76.78-.61,0-1.16-.25-1.64-.74v3.43Zm2.87-5.43c0-.5-.14-.91-.41-1.22-.28-.32-.62-.48-1.04-.48-.44,0-.8.15-1.08.46-.28.31-.41.71-.41,1.21s.14.9.41,1.21c.27.31.63.47,1.07.47.42,0,.76-.16,1.04-.47.28-.32.42-.71.42-1.18Z"/>
      <path d="m26.4,332.4v3c0,.87.34,1.3,1.03,1.3s1.03-.43,1.03-1.3v-3h1.21v3.03c0,.42-.05.78-.16,1.08-.1.27-.27.52-.52.74-.41.35-.93.53-1.56.53s-1.14-.18-1.55-.53c-.25-.22-.43-.46-.53-.74-.1-.24-.15-.6-.15-1.08v-3.03h1.21Z"/>
      <path d="m32.43,333.53v4.1h-1.21v-4.1h-.52v-1.13h.52v-1.92h1.21v1.92h.94v1.13h-.94Z"/>
    </g>
    <g>
      <path d="m117.67,332.83h1.21v.48c.23-.24.43-.41.6-.49.17-.09.4-.13.66-.13.59,0,1.06.26,1.4.77.38-.52.89-.77,1.54-.77,1.18,0,1.77.71,1.77,2.14v3.23h-1.21v-2.91c0-.5-.06-.86-.18-1.06-.13-.21-.33-.32-.62-.32-.33,0-.58.12-.73.38-.15.25-.23.65-.23,1.21v2.7h-1.21v-2.89c0-.93-.27-1.4-.8-1.4-.34,0-.59.13-.74.38-.16.25-.23.66-.23,1.2v2.7h-1.21v-5.23Z" style="fill: #fff;"/>
      <path d="m126.19,330.65c0-.21.08-.39.23-.55.15-.15.34-.23.55-.23s.41.08.56.23c.15.15.23.33.23.55s-.08.4-.23.56c-.15.15-.33.23-.55.23s-.4-.08-.56-.23c-.15-.15-.23-.34-.23-.56Zm1.39,2.18v5.23h-1.21v-5.23h1.21Z" style="fill: #fff;"/>
      <path d="m130.73,335.23l-1.88-2.4h1.44l1.17,1.53,1.19-1.53h1.48l-1.93,2.4,2.24,2.83h-1.44l-1.54-1.96-1.57,1.96h-1.48l2.33-2.83Z" style="fill: #fff;"/>
    </g>
    <g>
      <path d="m118.6,271.8c0-.75.27-1.4.81-1.93.54-.53,1.2-.79,1.98-.79s1.44.27,1.99.8c.54.53.81,1.19.81,1.97s-.27,1.44-.81,1.97c-.54.53-1.21.79-2,.79s-1.44-.27-1.97-.81c-.53-.53-.79-1.2-.79-2Zm1.24.02c0,.52.14.94.42,1.24.29.31.66.46,1.13.46s.85-.15,1.13-.46c.28-.3.42-.71.42-1.22s-.14-.92-.42-1.22c-.29-.31-.66-.46-1.13-.46s-.84.15-1.12.46c-.29.31-.43.71-.43,1.19Z" style="fill: #fff;"/>
      <path d="m126.67,269.22v3c0,.87.34,1.3,1.03,1.3s1.03-.43,1.03-1.3v-3h1.21v3.03c0,.42-.05.78-.16,1.08-.1.27-.27.52-.52.74-.41.35-.93.53-1.56.53s-1.14-.18-1.55-.53c-.25-.22-.43-.46-.53-.74-.1-.24-.15-.6-.15-1.08v-3.03h1.21Z" style="fill: #fff;"/>
      <path d="m132.7,270.35v4.1h-1.21v-4.1h-.52v-1.13h.52v-1.92h1.21v1.92h.94v1.13h-.94Z" style="fill: #fff;"/>
    </g>
    <g>
      <g>
        <path d="m59.36,341.79l-1.45-2.62h.86l.98,1.85.92-1.85h.84l-2.57,4.97h-.85l1.26-2.35Z"/>
        <path d="m61.95,340.76c0-.46.17-.86.5-1.19s.74-.49,1.22-.49.89.16,1.22.49c.33.33.5.73.5,1.21s-.17.89-.5,1.21c-.33.32-.75.49-1.23.49s-.89-.17-1.21-.5c-.33-.33-.49-.74-.49-1.23Zm.76.01c0,.32.09.58.26.76.18.19.41.28.7.28s.52-.09.7-.28c.17-.19.26-.44.26-.75s-.09-.56-.26-.75c-.18-.19-.41-.28-.7-.28s-.51.09-.69.28c-.18.19-.26.43-.26.73Z"/>
        <path d="m67.13,336.81v3.4l1.05-1.04h1l-1.4,1.35,1.5,1.87h-.96l-1.06-1.36-.12.12v1.24h-.74v-5.58h.74Z"/>
        <path d="m72.22,339.17h.75v3.22h-.75v-.34c-.31.29-.64.43-.99.43-.45,0-.81-.16-1.1-.48-.29-.33-.43-.74-.43-1.23s.14-.88.43-1.21c.29-.32.65-.48,1.08-.48.38,0,.71.15,1.01.46v-.37Zm-1.77,1.6c0,.31.08.56.25.75.17.2.38.29.64.29.28,0,.5-.09.67-.28.17-.2.25-.44.25-.75s-.08-.55-.25-.75c-.17-.19-.39-.29-.66-.29-.26,0-.47.1-.64.29-.17.2-.25.44-.25.73Z"/>
        <path d="m74.01,337.84c0-.13.05-.24.14-.34s.21-.14.34-.14.25.05.34.14c.09.09.14.21.14.34s-.05.25-.14.34c-.09.09-.21.14-.34.14s-.25-.05-.34-.14-.14-.21-.14-.35Zm.86,1.34v3.22h-.74v-3.22h.74Z"/>
      </g>
      <g>
        <path d="m66.36,343.56h.74v2.63c.26-.24.56-.36.88-.36.36,0,.65.12.87.35.19.21.28.53.28.98v1.97h-.74v-1.9c0-.26-.05-.45-.14-.56-.09-.12-.24-.17-.44-.17-.26,0-.44.08-.55.24-.1.16-.16.44-.16.84v1.56h-.74v-5.58Z"/>
        <path d="m69.92,347.51c0-.46.17-.86.5-1.19s.74-.49,1.22-.49.89.16,1.22.49c.33.33.5.73.5,1.21s-.17.89-.5,1.21c-.33.32-.75.49-1.23.49s-.89-.17-1.21-.5c-.33-.33-.49-.74-.49-1.23Zm.76.01c0,.32.09.58.26.76.18.19.41.28.7.28s.52-.09.7-.28c.17-.19.26-.44.26-.75s-.09-.56-.26-.75c-.18-.19-.41-.28-.7-.28s-.51.09-.69.28c-.18.19-.26.43-.26.73Z"/>
        <path d="m74.89,343.56v5.58h-.74v-5.58h.74Z"/>
        <path d="m75.72,344.59c0-.13.05-.24.14-.34s.21-.14.34-.14.25.05.34.14c.09.09.14.21.14.34s-.05.25-.14.34c-.09.09-.21.14-.34.14s-.25-.05-.34-.14-.14-.21-.14-.35Zm.86,1.34v3.22h-.74v-3.22h.74Z"/>
        <path d="m79.89,343.56h.75v5.58h-.75v-.34c-.29.29-.62.43-1,.43-.44,0-.81-.16-1.1-.48-.29-.33-.43-.74-.43-1.23s.14-.88.43-1.2c.29-.32.65-.49,1.08-.49.38,0,.71.15,1.01.46v-2.74Zm-1.77,3.96c0,.31.08.56.25.75.17.2.38.29.64.29.28,0,.5-.09.67-.28.17-.2.25-.44.25-.75s-.08-.55-.25-.75c-.17-.19-.39-.29-.66-.29-.26,0-.47.1-.64.29-.17.2-.25.44-.25.73Z"/>
        <path d="m83.95,345.92h.75v3.22h-.75v-.34c-.31.29-.64.43-.99.43-.45,0-.81-.16-1.1-.48-.29-.33-.43-.74-.43-1.23s.14-.88.43-1.21c.29-.32.65-.48,1.08-.48.38,0,.71.15,1.01.46v-.37Zm-1.77,1.6c0,.31.08.56.25.75.17.2.38.29.64.29.28,0,.5-.09.67-.28.17-.2.25-.44.25-.75s-.08-.55-.25-.75c-.17-.19-.39-.29-.66-.29-.26,0-.47.1-.64.29-.17.2-.25.44-.25.73Z"/>
        <path d="m86.71,348.54l-1.45-2.62h.86l.98,1.85.92-1.85h.84l-2.57,4.97h-.85l1.26-2.35Z"/>
      </g>
    </g>
  </g>
  <g id="d" data-name="knob patterns">
    <g id="e" data-name="g34">
      <circle id="f" data-name="circle26" cx="108" cy="80.53" r="19.87" style="fill: none;"/>
      <path id="g" data-name="path28" d="m116.1,94.11c7.44-4.47,9.84-14.12,5.37-21.56-4.47-7.44-14.12-9.84-21.56-5.37-7.44,4.47-9.84,14.12-5.37,21.56,1.34,2.24,3.22,4.1,5.47,5.43" style="fill: none; stroke: #1f1f1f; stroke-linecap: round; stroke-miterlimit: 7.5; stroke-width: .6px;"/>
      <line id="h" data-name="line30" x1="116.1" y1="94.11" x2="108" y2="80.53" style="fill: none;"/>
      <line id="i" data-name="line32" x1="108.01" y1="64.93" x2="108.01" y2="75" style="fill: none; stroke: #1f1f1f; stroke-linecap: round; stroke-miterlimit: 7.5; stroke-width: .6px;"/>
    </g>
    <g id="j" data-name="g44">
      <circle id="k" data-name="circle36" cx="36" cy="80.53" r="19.87" style="fill: none;"/>
      <path id="l" data-name="path38" d="m44.1,94.11c7.44-4.47,9.84-14.12,5.37-21.56s-14.12-9.84-21.56-5.37c-7.44,4.47-9.84,14.12-5.37,21.56,1.34,2.24,3.22,4.1,5.47,5.43" style="fill: none; stroke: #1f1f1f; stroke-linecap: round; stroke-miterlimit: 7.5; stroke-width: .6px;"/>
      <line id="m" data-name="line40" x1="44.1" y1="94.11" x2="36" y2="80.53" style="fill: none;"/>
      <line id="n" data-name="line42" x1="36.01" y1="64.93" x2="36.01" y2="75" style="fill: none; stroke: #1f1f1f; stroke-linecap: round; stroke-miterlimit: 7.5; stroke-width: .6px;"/>
    </g>
    <g id="o" data-name="g34">
      <circle id="p" data-name="circle26" cx="72" cy="254.44" r="19.87" style="fill: none;"/>
      <path id="q" data-name="path28" d="m80.1,268.02c7.44-4.47,9.84-14.12,5.37-21.56-4.47-7.44-14.12-9.84-21.56-5.37-7.44,4.47-9.84,14.12-5.37,21.56,1.34,2.24,3.22,4.1,5.47,5.43" style="fill: none; stroke: #1f1f1f; stroke-linecap: round; stroke-miterlimit: 7.5; stroke-width: .6px;"/>
      <line id="r" data-name="line30" x1="80.1" y1="268.02" x2="72" y2="254.44" style="fill: none;"/>
      <line id="s" data-name="line32" x1="72.01" y1="238.85" x2="72.01" y2="248.91" style="fill: none; stroke: #1f1f1f; stroke-linecap: round; stroke-miterlimit: 7.5; stroke-width: .6px;"/>
    </g>
    <g id="t" data-name="g44">
      <circle id="u" data-name="circle36" cx="72.09" cy="171.91" r="19.87" style="fill: none;"/>
      <path id="v" data-name="path38" d="m80.19,185.48c7.44-4.47,9.84-14.12,5.37-21.56-4.47-7.44-14.12-9.84-21.56-5.37-7.44,4.47-9.84,14.12-5.37,21.56,1.34,2.24,3.22,4.1,5.47,5.43" style="fill: none; stroke: #1f1f1f; stroke-linecap: round; stroke-miterlimit: 7.5; stroke-width: .6px;"/>
      <line id="w" data-name="line40" x1="80.19" y1="185.48" x2="72.09" y2="171.91" style="fill: none;"/>
      <line id="x" data-name="line42" x1="72.1" y1="156.31" x2="72.1" y2="166.37" style="fill: none; stroke: #1f1f1f; stroke-linecap: round; stroke-miterlimit: 7.5; stroke-width: .6px;"/>
    </g>
  </g>
</svg>