<?xml version="1.0" encoding="UTF-8"?>
<svg xmlns="http://www.w3.org/2000/svg" width="40.64mm" height="128mm" viewBox="0 0 115.2 362.83">
  <g id="a" data-name="background">
    <text transform="translate(56.69 56.69)" style="font-family: MyriadPro-Regular, &apos;Myriad Pro&apos;; font-size: 12px;"><tspan x="0" y="0">_2</tspan></text>
    <rect width="115.2" height="362.83" style="fill: #e5e5e5;"/>
    <line y1="25.68" x2="115.2" y2="25.68" style="fill: none; stroke: #000; stroke-miterlimit: 10; stroke-width: .25px;"/>
    <line y1="341.57" x2="115.2" y2="341.57" style="fill: none; stroke: #000; stroke-miterlimit: 10; stroke-width: .25px;"/>
  </g>
  <g id="b" data-name="new_labels_interstate_vector">
    <text transform="translate(81.59 300.42)" style="font-family: Interstate-Bold, Interstate; font-size: 6px; font-weight: 700;"><tspan x="0" y="0">R</tspan><tspan x="4.28" y="0" style="letter-spacing: -.01em;">E</tspan><tspan x="8.12" y="0">VERSE</tspan></text>
    <text transform="translate(80.84 337.51)" style="font-family: Interstate-Bold, Interstate; font-size: 6px; font-weight: 700;"><tspan x="0" y="0" style="letter-spacing: -.03em;">F</tspan><tspan x="3.55" y="0" style="letter-spacing: 0em;">O</tspan><tspan x="7.86" y="0" style="letter-spacing: -.02em;">R</tspan><tspan x="12.05" y="0" style="letter-spacing: -.07em;">W</tspan><tspan x="16.93" y="0">ARD</tspan></text>
    <text transform="translate(47.33 337.51)" style="font-family: Interstate-Bold, Interstate; font-size: 6px; font-weight: 700;"><tspan x="0" y="0">C</tspan><tspan x="4.02" y="0" style="letter-spacing: -.03em;">L</tspan><tspan x="7.58" y="0" style="letter-spacing: 0em;">OCK</tspan></text>
    <text transform="translate(9.77 337.51)" style="font-family: Interstate-Bold, Interstate; font-size: 6px; font-weight: 700;"><tspan x="0" y="0">INPUT</tspan></text>
    <g>
      <g>
        <path d="m85.53,300.42h-.96l-.75-1.51h-.85v1.51h-.84v-4.2h1.96c.79,0,1.44.44,1.44,1.33,0,.63-.27,1.03-.8,1.24l.8,1.63Zm-.86-2.85c0-.38-.23-.53-.6-.53h-1.1v1.08h1.1c.39,0,.6-.18.6-.55Z"/>
        <path d="m89.42,300.42h-3v-4.2h2.91v.82h-2.08v.73h1.21v.82h-1.21v1.01h2.17v.82Z"/>
        <path d="m93.75,296.22l-1.49,4.2h-.82l-1.49-4.2h.93l.79,2.43c.08.23.16.54.2.69.04-.16.11-.44.19-.69l.77-2.43h.92Z"/>
        <path d="m97.54,300.42h-3v-4.2h2.91v.82h-2.08v.73h1.21v.82h-1.21v1.01h2.17v.82Z"/>
        <path d="m101.83,300.42h-.96l-.75-1.51h-.85v1.51h-.84v-4.2h1.95c.79,0,1.45.44,1.45,1.33,0,.63-.27,1.03-.8,1.24l.8,1.63Zm-.86-2.85c0-.38-.23-.53-.6-.53h-1.1v1.08h1.1c.39,0,.6-.18.6-.55Z"/>
        <path d="m105.8,299.15c0,.8-.5,1.34-1.65,1.34-.7,0-1.31-.29-1.63-.76l.61-.54c.29.34.67.48,1.07.48.5,0,.73-.14.73-.46,0-.27-.14-.39-.94-.57-.77-.18-1.31-.43-1.31-1.25,0-.76.67-1.23,1.5-1.23.65,0,1.13.25,1.53.66l-.61.59c-.27-.28-.57-.43-.95-.43-.45,0-.6.19-.6.38,0,.26.18.35.85.5.67.16,1.4.38,1.4,1.29Z"/>
        <path d="m109.69,300.42h-3v-4.2h2.91v.82h-2.08v.73h1.21v.82h-1.21v1.01h2.17v.82Z"/>
      </g>
      <g>
        <path d="m84.38,334.14h-2.17v.79h1.27v.82h-1.27v1.77h-.84v-4.2h3v.82Z"/>
        <path d="m88.39,335.41c0,1.35-.76,2.17-1.85,2.17s-1.85-.8-1.85-2.16.76-2.17,1.86-2.17,1.84.8,1.84,2.16Zm-.86.01c0-.85-.41-1.34-1-1.34s-.98.47-.98,1.33.41,1.34,1,1.34.98-.47.98-1.33Z"/>
        <path d="m92.64,337.51h-.96l-.75-1.51h-.85v1.51h-.84v-4.2h1.95c.79,0,1.45.44,1.45,1.33,0,.63-.27,1.03-.8,1.24l.8,1.63Zm-.86-2.85c0-.38-.23-.53-.6-.53h-1.1v1.08h1.1c.39,0,.6-.18.6-.55Z"/>
        <path d="m97.87,333.31l-.88,4.2h-.82l-.52-2.16c-.06-.25-.12-.56-.14-.72-.02.16-.08.47-.14.72l-.53,2.16h-.79l-.88-4.2h.88l.37,2.04c.04.2.08.52.1.69.03-.17.1-.49.14-.69l.49-2.04h.73l.5,2.04c.05.2.11.52.14.69.02-.17.07-.49.1-.69l.37-2.04h.86Z"/>
        <path d="m102.03,337.51h-.92l-.33-.94h-1.54l-.33.94h-.9l1.61-4.2h.82l1.6,4.2Zm-1.54-1.73l-.27-.76c-.08-.25-.17-.5-.21-.65-.04.16-.13.41-.21.65l-.27.76h.96Z"/>
        <path d="m106.21,337.51h-.96l-.75-1.51h-.85v1.51h-.84v-4.2h1.96c.79,0,1.44.44,1.44,1.33,0,.63-.27,1.03-.8,1.24l.8,1.63Zm-.86-2.85c0-.38-.23-.53-.6-.53h-1.1v1.08h1.1c.39,0,.6-.18.6-.55Z"/>
        <path d="m110.49,335.41c0,1.47-1.07,2.1-2.15,2.1h-1.25v-4.2h1.31c1.2,0,2.09.56,2.09,2.1Zm-.86,0c0-.86-.37-1.28-1.25-1.28h-.44v2.57h.41c.88,0,1.28-.52,1.28-1.28Z"/>
      </g>
    </g>
    <g>
      <path d="m51.05,334.18l-.78.36c-.15-.29-.39-.46-.77-.46-.63,0-.99.55-.99,1.33s.37,1.33,1,1.33c.38,0,.6-.16.82-.53l.71.42c-.29.59-.79.95-1.55.95-1.1,0-1.83-.84-1.83-2.17s.77-2.17,1.87-2.17c.79,0,1.27.38,1.54.93Z"/>
      <path d="m54.83,337.51h-2.94v-4.2h.84v3.37h2.11v.83Z"/>
      <path d="m58.91,335.41c0,1.35-.76,2.17-1.85,2.17s-1.85-.8-1.85-2.16.76-2.17,1.86-2.17,1.84.8,1.84,2.16Zm-.86.01c0-.85-.41-1.34-1-1.34s-.98.47-.98,1.33.41,1.34,1,1.34.98-.47.98-1.33Z"/>
      <path d="m62.94,334.18l-.78.36c-.15-.29-.39-.46-.77-.46-.63,0-.99.55-.99,1.33s.37,1.33,1,1.33c.38,0,.6-.16.82-.53l.71.42c-.29.59-.79.95-1.55.95-1.1,0-1.83-.84-1.83-2.17s.77-2.17,1.87-2.17c.79,0,1.27.38,1.54.93Z"/>
      <path d="m67.44,337.51h-1.01l-1.14-2.03-.67.79v1.24h-.84v-4.2h.84v1.19c0,.16,0,.53-.01.67.06-.1.22-.29.33-.43l1.17-1.43h1.01l-1.23,1.45,1.54,2.75Z"/>
    </g>
    <g>
      <path d="m11.21,337.51h-.84v-4.2h.84v4.2Z"/>
      <path d="m15.75,337.51h-.75l-1.54-2.29c-.1-.16-.24-.37-.29-.47,0,.16.01.68.01.92v1.85h-.83v-4.2h.8l1.49,2.22c.1.16.24.37.29.47,0-.16-.01-.68-.01-.92v-1.77h.83v4.2Z"/>
      <path d="m20.11,334.65c0,.97-.65,1.38-1.52,1.38h-.92v1.49h-.84v-4.2h1.83c.79,0,1.45.44,1.45,1.33Zm-.86.02c0-.37-.24-.53-.61-.53h-.97v1.08h.98c.39,0,.6-.18.6-.55Z"/>
      <path d="m24.28,335.66c0,1.22-.64,1.92-1.7,1.92s-1.7-.68-1.7-1.91v-2.36h.84v2.34c0,.67.32,1.1.86,1.1s.86-.41.86-1.08v-2.36h.84v2.34Z"/>
      <path d="m28.31,334.14h-1.21v3.37h-.84v-3.37h-1.21v-.83h3.25v.83Z"/>
    </g>
    <text transform="translate(76.29 82.47)" style="font-family: Interstate-Bold, Interstate; font-size: 6px; font-weight: 700;"><tspan x="0" y="0">LEN</tspan><tspan x="12.1" y="0" style="letter-spacing: -.03em;">G</tspan><tspan x="16.1" y="0">TH</tspan></text>
    <text transform="translate(72.18 141.96)" style="font-family: Interstate-Bold, Interstate; font-size: 6px; font-weight: 700;"><tspan x="0" y="0">FEED</tspan><tspan x="15.79" y="0" style="letter-spacing: -.02em;">B</tspan><tspan x="19.91" y="0" style="letter-spacing: -.03em;">A</tspan><tspan x="24.26" y="0" style="letter-spacing: 0em;">CK</tspan></text>
    <g>
      <path d="m79.77,82.47h-2.94v-4.2h.84v3.37h2.11v.83Z"/>
      <path d="m83.55,82.47h-3v-4.2h2.91v.82h-2.08v.73h1.21v.82h-1.21v1.01h2.17v.82Z"/>
      <path d="m87.85,82.47h-.75l-1.54-2.29c-.1-.16-.24-.37-.29-.47,0,.16.01.68.01.92v1.85h-.83v-4.2h.8l1.49,2.22c.1.16.24.37.29.47,0-.16-.01-.68-.01-.92v-1.77h.83v4.2Z"/>
      <path d="m92.23,80.84c0,1.08-.71,1.69-1.69,1.69-1.1,0-1.83-.84-1.83-2.17s.77-2.17,1.87-2.17c.86,0,1.31.4,1.59,1.05l-.8.33c-.16-.31-.35-.54-.8-.54-.63,0-.99.55-.99,1.33s.37,1.34,1,1.34c.58,0,.77-.27.82-.64h-.67v-.79h1.5v.55Z"/>
      <path d="m95.91,79.1h-1.21v3.37h-.84v-3.37h-1.21v-.83h3.25v.83Z"/>
      <path d="m100.12,82.47h-.84v-1.76h-1.72v1.76h-.84v-4.2h.84v1.61h1.72v-1.61h.84v4.2Z"/>
    </g>
    <g>
      <path d="m75.72,138.67h-2.17v.79h1.27v.82h-1.27v1.77h-.84v-4.2h3v.82Z"/>
      <path d="m79.47,142.04h-3v-4.2h2.91v.82h-2.08v.73h1.21v.82h-1.21v1.01h2.17v.82Z"/>
      <path d="m83.37,142.04h-3v-4.2h2.91v.82h-2.08v.73h1.21v.82h-1.21v1.01h2.17v.82Z"/>
      <path d="m87.67,139.94c0,1.47-1.07,2.1-2.15,2.1h-1.25v-4.2h1.31c1.2,0,2.09.56,2.09,2.1Zm-.86,0c0-.86-.37-1.28-1.25-1.28h-.44v2.57h.41c.88,0,1.28-.52,1.28-1.28Z"/>
      <path d="m91.91,140.69c0,.88-.59,1.36-1.49,1.36h-1.91v-4.2h1.92c.82,0,1.33.39,1.33,1.11,0,.36-.17.65-.44.82.33.15.59.46.59.92Zm-1-1.67c0-.26-.15-.4-.52-.4h-1.07v.8h1.11c.35,0,.47-.16.47-.4Zm.13,1.68c0-.36-.19-.54-.6-.54h-1.12v1.08h1.12c.41,0,.6-.22.6-.54Z"/>
      <path d="m96.34,142.04h-.92l-.33-.94h-1.54l-.33.94h-.9l1.61-4.2h.82l1.6,4.2Zm-1.54-1.73l-.27-.76c-.08-.25-.17-.5-.21-.65-.04.16-.13.41-.21.65l-.27.76h.96Z"/>
      <path d="m100.15,138.71l-.78.36c-.15-.29-.39-.46-.77-.46-.63,0-.99.55-.99,1.33s.37,1.33,1,1.33c.38,0,.6-.16.82-.53l.71.42c-.29.59-.79.95-1.55.95-1.1,0-1.83-.84-1.83-2.17s.77-2.17,1.87-2.17c.79,0,1.27.38,1.54.93Z"/>
      <path d="m104.65,142.04h-1.01l-1.14-2.03-.67.79v1.24h-.84v-4.2h.84v1.19c0,.16,0,.53-.01.67.06-.1.22-.29.33-.43l1.17-1.43h1.01l-1.23,1.45,1.54,2.75Z"/>
    </g>
    <g>
      <path d="m77.31,199.51c0,1.47-1.07,2.1-2.15,2.1h-1.25v-4.2h1.31c1.2,0,2.09.56,2.09,2.1Zm-.86,0c0-.86-.37-1.28-1.25-1.28h-.44v2.57h.41c.88,0,1.28-.52,1.28-1.28Z"/>
      <path d="m79.05,201.61h-.84v-4.2h.84v4.2Z"/>
      <path d="m83.27,200.34c0,.8-.5,1.34-1.65,1.34-.7,0-1.31-.29-1.63-.76l.61-.54c.29.34.67.48,1.07.48.5,0,.73-.14.73-.46,0-.27-.14-.39-.94-.57-.77-.18-1.31-.43-1.31-1.25,0-.76.67-1.23,1.5-1.23.65,0,1.13.25,1.53.66l-.61.59c-.27-.28-.57-.43-.95-.43-.45,0-.6.19-.6.38,0,.26.18.35.85.5.67.16,1.4.38,1.4,1.29Z"/>
      <path d="m86.98,198.24h-1.21v3.37h-.84v-3.37h-1.21v-.83h3.25v.83Z"/>
      <path d="m90.94,201.61h-.92l-.33-.94h-1.54l-.33.94h-.9l1.61-4.2h.82l1.6,4.2Zm-1.54-1.73l-.27-.76c-.08-.25-.17-.5-.21-.65-.04.16-.12.41-.21.65l-.27.76h.96Z"/>
      <path d="m95.12,201.61h-.75l-1.54-2.29c-.1-.16-.24-.37-.29-.47,0,.16.01.68.01.92v1.85h-.83v-4.2h.8l1.49,2.22c.1.16.24.37.29.47,0-.16-.01-.68-.01-.92v-1.77h.83v4.2Z"/>
      <path d="m99.38,198.28l-.78.36c-.15-.29-.39-.46-.77-.46-.63,0-.99.55-.99,1.33s.37,1.33,1,1.33c.38,0,.6-.16.82-.53l.71.42c-.29.59-.79.95-1.55.95-1.1,0-1.83-.84-1.83-2.17s.77-2.17,1.87-2.17c.79,0,1.27.38,1.54.93Z"/>
      <path d="m103.23,201.61h-3v-4.2h2.91v.82h-2.08v.73h1.21v.82h-1.21v1.01h2.17v.82Z"/>
    </g>
    <g>
      <path d="m77.31,259.09c0,1.47-1.07,2.1-2.15,2.1h-1.25v-4.2h1.31c1.2,0,2.09.56,2.09,2.1Zm-.86,0c0-.86-.37-1.28-1.25-1.28h-.44v2.57h.41c.88,0,1.28-.52,1.28-1.28Z"/>
      <path d="m79.05,261.19h-.84v-4.2h.84v4.2Z"/>
      <path d="m83.27,259.91c0,.8-.5,1.34-1.65,1.34-.7,0-1.31-.29-1.63-.76l.61-.54c.29.34.67.48,1.07.48.5,0,.73-.14.73-.46,0-.27-.14-.39-.94-.57-.77-.18-1.31-.43-1.31-1.25,0-.76.67-1.23,1.5-1.23.65,0,1.13.25,1.53.66l-.61.59c-.27-.28-.57-.43-.95-.43-.45,0-.6.19-.6.38,0,.26.18.35.85.5.67.16,1.4.38,1.4,1.29Z"/>
      <path d="m86.98,257.82h-1.21v3.37h-.84v-3.37h-1.21v-.83h3.25v.83Z"/>
      <path d="m90.94,261.19h-.92l-.33-.94h-1.54l-.33.94h-.9l1.61-4.2h.82l1.6,4.2Zm-1.54-1.73l-.27-.76c-.08-.25-.17-.5-.21-.65-.04.16-.12.41-.21.65l-.27.76h.96Z"/>
      <path d="m95.12,261.19h-.75l-1.54-2.29c-.1-.16-.24-.37-.29-.47,0,.16.01.68.01.92v1.85h-.83v-4.2h.8l1.49,2.22c.1.16.24.37.29.47,0-.16-.01-.68-.01-.92v-1.77h.83v4.2Z"/>
      <path d="m99.38,257.85l-.78.36c-.15-.29-.39-.46-.77-.46-.63,0-.99.55-.99,1.33s.37,1.33,1,1.33c.38,0,.6-.16.82-.53l.71.42c-.29.59-.79.95-1.55.95-1.1,0-1.83-.84-1.83-2.17s.77-2.17,1.87-2.17c.79,0,1.27.38,1.54.93Z"/>
      <path d="m103.23,261.19h-3v-4.2h2.91v.82h-2.08v.73h1.21v.82h-1.21v1.01h2.17v.82Z"/>
    </g>
    <g>
      <g>
        <path d="m26.38,169.37h-.96l-.75-1.51h-.85v1.51h-.84v-4.2h1.96c.79,0,1.44.44,1.44,1.33,0,.63-.27,1.03-.8,1.24l.8,1.63Zm-.86-2.85c0-.38-.23-.53-.6-.53h-1.1v1.08h1.1c.39,0,.6-.18.6-.55Z"/>
        <path d="m30.27,169.37h-3v-4.2h2.91v.82h-2.08v.73h1.21v.82h-1.21v1.01h2.17v.82Z"/>
        <path d="m34.61,165.18l-1.49,4.2h-.82l-1.49-4.2h.93l.79,2.43c.08.23.16.54.2.69.04-.16.11-.44.19-.69l.77-2.43h.92Z"/>
        <path d="m38.39,169.37h-3v-4.2h2.91v.82h-2.08v.73h1.21v.82h-1.21v1.01h2.17v.82Z"/>
        <path d="m42.69,169.37h-.96l-.75-1.51h-.85v1.51h-.84v-4.2h1.95c.79,0,1.45.44,1.45,1.33,0,.63-.27,1.03-.8,1.24l.8,1.63Zm-.86-2.85c0-.38-.23-.53-.6-.53h-1.1v1.08h1.1c.39,0,.6-.18.6-.55Z"/>
        <path d="m46.65,168.1c0,.8-.5,1.34-1.65,1.34-.7,0-1.31-.29-1.63-.76l.61-.54c.29.34.67.48,1.07.48.5,0,.73-.14.73-.46,0-.27-.14-.39-.94-.57-.77-.18-1.31-.43-1.31-1.25,0-.76.67-1.23,1.5-1.23.65,0,1.13.25,1.53.66l-.61.59c-.27-.28-.57-.43-.95-.43-.45,0-.6.19-.6.38,0,.26.18.35.85.5.67.16,1.4.38,1.4,1.29Z"/>
        <path d="m50.54,169.37h-3v-4.2h2.91v.82h-2.08v.73h1.21v.82h-1.21v1.01h2.17v.82Z"/>
        <path d="m56.16,166h-1.21v3.37h-.84v-3.37h-1.21v-.83h3.25v.83Z"/>
        <path d="m60.12,169.37h-.92l-.33-.94h-1.54l-.33.94h-.9l1.61-4.2h.82l1.6,4.2Zm-1.54-1.73l-.27-.76c-.08-.25-.17-.5-.21-.65-.04.16-.13.41-.21.65l-.27.76h.96Z"/>
        <path d="m64.18,166.51c0,.97-.65,1.38-1.52,1.38h-.92v1.49h-.84v-4.2h1.83c.79,0,1.45.44,1.45,1.33Zm-.86.02c0-.37-.24-.53-.61-.53h-.97v1.08h.98c.39,0,.6-.18.6-.55Z"/>
      </g>
      <g>
        <path d="m24.45,225.57h-2.17v.79h1.27v.82h-1.27v1.77h-.84v-4.2h3v.82Z"/>
        <path d="m28.46,226.84c0,1.35-.76,2.17-1.85,2.17s-1.85-.8-1.85-2.16.76-2.17,1.86-2.17,1.84.8,1.84,2.16Zm-.86.01c0-.85-.41-1.34-1-1.34s-.98.47-.98,1.33.41,1.34,1,1.34.98-.47.98-1.33Z"/>
        <path d="m32.7,228.95h-.96l-.75-1.51h-.85v1.51h-.84v-4.2h1.96c.79,0,1.44.44,1.44,1.33,0,.63-.27,1.03-.8,1.24l.8,1.63Zm-.86-2.85c0-.38-.23-.53-.6-.53h-1.1v1.08h1.1c.39,0,.6-.18.6-.55Z"/>
        <path d="m37.94,224.75l-.88,4.2h-.82l-.52-2.16c-.06-.25-.12-.56-.14-.72-.02.16-.08.47-.14.72l-.53,2.16h-.79l-.88-4.2h.88l.37,2.04c.04.2.08.52.1.69.03-.17.1-.49.14-.69l.49-2.04h.73l.5,2.04c.05.2.11.52.14.69.02-.17.07-.49.1-.69l.37-2.04h.86Z"/>
        <path d="m42.09,228.95h-.92l-.33-.94h-1.54l-.33.94h-.9l1.61-4.2h.82l1.6,4.2Zm-1.54-1.73l-.27-.76c-.08-.25-.17-.5-.21-.65-.04.16-.12.41-.21.65l-.27.76h.96Z"/>
        <path d="m46.28,228.95h-.96l-.75-1.51h-.85v1.51h-.84v-4.2h1.95c.79,0,1.45.44,1.45,1.33,0,.63-.27,1.03-.8,1.24l.8,1.63Zm-.86-2.85c0-.38-.23-.53-.6-.53h-1.1v1.08h1.1c.39,0,.6-.18.6-.55Z"/>
        <path d="m50.56,226.85c0,1.47-1.07,2.1-2.15,2.1h-1.25v-4.2h1.31c1.2,0,2.09.56,2.09,2.1Zm-.86,0c0-.86-.37-1.28-1.25-1.28h-.44v2.57h.41c.88,0,1.28-.52,1.28-1.28Z"/>
        <path d="m56.12,225.58h-1.21v3.37h-.84v-3.37h-1.21v-.83h3.25v.83Z"/>
        <path d="m60.08,228.95h-.92l-.33-.94h-1.54l-.33.94h-.9l1.61-4.2h.82l1.6,4.2Zm-1.54-1.73l-.27-.76c-.08-.25-.17-.5-.21-.65-.04.16-.12.41-.21.65l-.27.76h.96Z"/>
        <path d="m64.15,226.08c0,.97-.65,1.38-1.52,1.38h-.92v1.49h-.84v-4.2h1.83c.79,0,1.45.44,1.45,1.33Zm-.86.02c0-.37-.24-.53-.61-.53h-.97v1.08h.98c.39,0,.6-.18.6-.55Z"/>
      </g>
    </g>
  </g>
  <g id="c" data-name="Title">
    <g>
      <path d="m28.88,22.06h-7.69v-12.36h-3.86l1.54-6.53h12.34l1.54,6.53h-3.86v12.36Z"/>
      <path d="m43.3,22.06h-7.31L45.62,3.16l9.61,18.9h-7.31l-1.54-3.46h-1.54l-1.54,3.46Zm3.29-7.53c0-.54-.43-.97-.97-.97s-.97.43-.97.97.43.97.97.97.97-.43.97-.97Z"/>
      <path d="m69.27,22.06h-7.32V3.16h7.88c3.97,0,7.15,3.21,7.15,7.13s-3.21,7.13-7.15,7.13h-.57v4.64Zm1.94-11.77c0-.54-.43-.97-.97-.97s-.97.43-.97.97.43.97.97.97.97-.43.97-.97Z"/>
      <path d="m83.8,19.38l2.51-2.24c.22.19.43.3.75.3.57,0,1.03-.43,1.03-.97,0-.32-.19-.65-.46-.81-2.02-1.24-3.37-3.4-3.37-5.8,0-3.78,3.29-6.88,7.31-6.88,2.59,0,4.86,1.3,6.18,3.24l-2.51,2.38c-.08-.46-.49-.81-1-.81-.57,0-1,.43-1,.97,0,.35.16.65.43.81,2.02,1.24,3.32,3.4,3.32,5.78,0,3.78-3.29,6.91-7.31,6.91-2.4,0-4.56-1.13-5.88-2.86Z"/>
    </g>
    <g>
      <g>
        <path d="m41.93,350.51l-1.46-2.64h.87l.99,1.86.93-1.86h.85l-2.58,5.01h-.85l1.27-2.37Z"/>
        <path d="m44.55,349.47c0-.47.17-.87.5-1.2s.74-.49,1.22-.49.9.17,1.23.5c.33.33.5.74.5,1.22s-.17.89-.5,1.22c-.34.33-.75.49-1.24.49s-.89-.17-1.22-.5c-.33-.33-.49-.74-.49-1.24Zm.77.01c0,.32.09.58.26.77.18.19.41.29.7.29s.53-.09.7-.28c.18-.19.26-.44.26-.76s-.09-.57-.26-.76c-.18-.19-.41-.29-.7-.29s-.52.1-.7.29c-.18.19-.27.44-.27.74Z"/>
        <path d="m49.76,345.49v3.43l1.06-1.05h1.01l-1.41,1.36,1.51,1.88h-.97l-1.07-1.37-.12.12v1.25h-.75v-5.62h.75Z"/>
        <path d="m54.89,347.87h.75v3.24h-.75v-.34c-.31.29-.64.43-1,.43-.45,0-.82-.16-1.11-.49-.29-.33-.44-.74-.44-1.24s.15-.89.44-1.22c.29-.32.66-.49,1.09-.49.38,0,.72.16,1.02.47v-.38Zm-1.78,1.61c0,.31.08.56.25.76.17.2.39.3.65.3.28,0,.5-.1.67-.29.17-.2.26-.45.26-.75s-.09-.56-.26-.75c-.17-.19-.39-.29-.67-.29-.26,0-.47.1-.65.29-.17.2-.26.44-.26.73Z"/>
        <path d="m56.69,346.53c0-.13.05-.24.14-.34s.21-.14.34-.14.25.05.35.14c.1.09.14.21.14.34s-.05.25-.14.35c-.09.1-.21.14-.34.14s-.25-.05-.35-.14-.14-.21-.14-.35Zm.86,1.35v3.24h-.75v-3.24h.75Z"/>
      </g>
      <g>
        <path d="m48.99,352.29h.75v2.65c.27-.24.56-.36.88-.36.37,0,.66.12.88.36.19.21.28.54.28.99v1.99h-.75v-1.92c0-.26-.05-.45-.14-.56-.09-.12-.24-.18-.44-.18-.26,0-.45.08-.55.24-.1.16-.16.45-.16.85v1.57h-.75v-5.62Z"/>
        <path d="m52.57,356.27c0-.47.17-.87.5-1.2s.74-.49,1.22-.49.9.17,1.23.5c.33.33.5.74.5,1.22s-.17.89-.5,1.22c-.34.33-.75.49-1.24.49s-.89-.17-1.22-.5c-.33-.33-.49-.74-.49-1.24Zm.77.01c0,.32.09.58.26.77.18.19.41.29.7.29s.53-.09.7-.28c.18-.19.26-.44.26-.76s-.09-.57-.26-.76c-.18-.19-.41-.29-.7-.29s-.52.1-.7.29c-.18.19-.27.44-.27.74Z"/>
        <path d="m57.57,352.29v5.62h-.75v-5.62h.75Z"/>
        <path d="m58.41,353.33c0-.13.05-.24.14-.34s.21-.14.34-.14.25.05.35.14c.1.09.14.21.14.34s-.05.25-.14.35c-.09.1-.21.14-.34.14s-.25-.05-.35-.14-.14-.21-.14-.35Zm.86,1.35v3.24h-.75v-3.24h.75Z"/>
        <path d="m62.61,352.29h.75v5.62h-.75v-.34c-.3.29-.63.43-1,.43-.44,0-.81-.16-1.11-.49-.29-.33-.44-.74-.44-1.24s.15-.89.44-1.21c.29-.33.65-.49,1.09-.49.38,0,.72.16,1.02.47v-2.76Zm-1.78,3.99c0,.31.08.56.25.76.17.2.39.3.65.3.28,0,.5-.1.67-.29.17-.2.26-.45.26-.75s-.09-.56-.26-.75c-.17-.19-.39-.29-.67-.29-.26,0-.47.1-.65.29-.17.2-.26.44-.26.73Z"/>
        <path d="m66.7,354.67h.75v3.24h-.75v-.34c-.31.29-.64.43-1,.43-.45,0-.82-.16-1.11-.49-.29-.33-.44-.74-.44-1.24s.15-.89.44-1.22c.29-.32.66-.49,1.09-.49.38,0,.72.16,1.02.47v-.38Zm-1.78,1.61c0,.31.08.56.25.76.17.2.39.3.65.3.28,0,.5-.1.67-.29.17-.2.26-.45.26-.75s-.09-.56-.26-.75c-.17-.19-.39-.29-.67-.29-.26,0-.47.1-.65.29-.17.2-.26.44-.26.73Z"/>
        <path d="m69.48,357.31l-1.46-2.64h.87l.99,1.86.93-1.86h.85l-2.58,5.01h-.85l1.27-2.37Z"/>
      </g>
    </g>
  </g>
</svg>