<?xml version="1.0" encoding="UTF-8"?>
<svg xmlns="http://www.w3.org/2000/svg" width="198.64mm" height="139.73mm" viewBox="0 0 563.08 396.09">
  <g id="a" data-name="background">
    <text transform="translate(230.35 78.63)" style="font-family: MyriadPro-Regular, &apos;Myriad Pro&apos;; font-size: 12px;"><tspan x="0" y="0">_2</tspan></text>
    <rect x="173.65" y="21.94" width="115.2" height="362.83" style="fill: #e7e7e7;"/>
  </g>
  <g id="b" data-name="Labels">
    <g>
      <path d="m202.53,43h-7.69v-12.36h-3.86l1.54-6.53h12.34l1.54,6.53h-3.86v12.36Z"/>
      <path d="m216.95,43h-7.31l9.64-18.9,9.61,18.9h-7.31l-1.54-3.46h-1.54l-1.54,3.46Zm3.29-7.53c0-.54-.43-.97-.97-.97s-.97.43-.97.97.43.97.97.97.97-.43.97-.97Z"/>
      <path d="m242.93,43h-7.32v-18.9h7.88c3.97,0,7.15,3.21,7.15,7.13s-3.21,7.13-7.15,7.13h-.57v4.64Zm1.94-11.77c0-.54-.43-.97-.97-.97s-.97.43-.97.97.43.97.97.97.97-.43.97-.97Z"/>
      <path d="m257.46,40.33l2.51-2.24c.22.19.43.3.75.3.57,0,1.03-.43,1.03-.97,0-.32-.19-.65-.46-.81-2.02-1.24-3.37-3.4-3.37-5.8,0-3.78,3.29-6.88,7.31-6.88,2.59,0,4.86,1.3,6.18,3.24l-2.51,2.38c-.08-.46-.49-.81-1-.81-.57,0-1,.43-1,.97,0,.35.16.65.43.81,2.02,1.24,3.32,3.4,3.32,5.78,0,3.78-3.29,6.91-7.31,6.91-2.4,0-4.56-1.13-5.88-2.86Z"/>
    </g>
    <g>
      <g>
        <path d="m251.69,372.67l-1.79-3.24h1.07l1.22,2.29,1.14-2.29h1.04l-3.17,6.14h-1.05l1.55-2.9Z"/>
        <path d="m254.9,371.4c0-.57.21-1.06.62-1.47s.91-.6,1.5-.6,1.1.2,1.51.61c.41.41.61.91.61,1.5s-.21,1.1-.62,1.5c-.41.4-.92.6-1.52.6s-1.1-.2-1.5-.61c-.4-.4-.6-.91-.6-1.52Zm.94.02c0,.4.11.71.32.94.22.23.51.35.86.35s.65-.11.86-.35c.21-.23.32-.54.32-.93s-.11-.7-.32-.93c-.22-.23-.51-.35-.86-.35s-.63.12-.85.35c-.22.23-.33.54-.33.91Z"/>
        <path d="m261.29,366.52v4.21l1.29-1.29h1.23l-1.73,1.67,1.85,2.31h-1.19l-1.32-1.68-.15.15v1.53h-.92v-6.9h.92Z"/>
        <path d="m267.59,369.44h.92v3.98h-.92v-.42c-.38.35-.79.53-1.22.53-.55,0-1.01-.2-1.36-.6-.36-.41-.53-.91-.53-1.52s.18-1.09.53-1.49c.36-.4.8-.6,1.34-.6.46,0,.88.19,1.25.57v-.46Zm-2.18,1.98c0,.38.1.69.31.93.21.24.47.36.79.36.34,0,.62-.12.82-.35.21-.24.31-.55.31-.92s-.1-.68-.31-.92c-.21-.24-.48-.36-.82-.36-.32,0-.58.12-.79.36-.21.24-.31.54-.31.9Z"/>
        <path d="m269.79,367.78c0-.16.06-.3.17-.42s.26-.18.42-.18.31.06.42.18c.12.11.17.25.17.42s-.06.31-.17.42c-.11.12-.25.18-.42.18s-.31-.06-.42-.18-.17-.26-.17-.43Zm1.06,1.65v3.98h-.92v-3.98h.92Z"/>
      </g>
      <g>
        <path d="m260.35,374.86h.92v3.25c.33-.29.69-.44,1.08-.44.45,0,.81.15,1.08.44.23.25.34.66.34,1.21v2.44h-.92v-2.35c0-.32-.06-.55-.17-.69-.11-.14-.29-.21-.55-.21-.32,0-.55.1-.68.3-.13.2-.19.55-.19,1.04v1.92h-.92v-6.9Z"/>
        <path d="m264.75,379.74c0-.57.21-1.06.62-1.47s.91-.6,1.5-.6,1.1.2,1.51.61c.41.41.61.91.61,1.5s-.21,1.1-.62,1.5c-.41.4-.92.6-1.52.6s-1.1-.2-1.5-.61c-.4-.4-.6-.91-.6-1.52Zm.94.02c0,.4.11.71.32.94.22.23.51.35.86.35s.65-.11.86-.35c.21-.23.32-.54.32-.93s-.11-.7-.32-.93c-.22-.23-.51-.35-.86-.35s-.63.12-.85.35c-.22.23-.33.54-.33.91Z"/>
        <path d="m270.88,374.86v6.9h-.92v-6.9h.92Z"/>
        <path d="m271.91,376.12c0-.16.06-.3.17-.42s.26-.18.42-.18.31.06.42.18c.12.11.17.25.17.42s-.06.31-.17.42c-.11.12-.25.18-.42.18s-.31-.06-.42-.18-.17-.26-.17-.43Zm1.06,1.65v3.98h-.92v-3.98h.92Z"/>
        <path d="m277.06,374.86h.92v6.9h-.92v-.42c-.36.35-.77.53-1.23.53-.54,0-1-.2-1.36-.6-.36-.41-.53-.91-.53-1.52s.18-1.09.53-1.49c.35-.4.8-.6,1.34-.6.47,0,.88.19,1.25.57v-3.38Zm-2.18,4.9c0,.38.1.69.31.93.21.24.47.36.79.36.34,0,.62-.12.82-.35.21-.24.31-.55.31-.92s-.1-.68-.31-.92c-.21-.24-.48-.36-.82-.36-.32,0-.58.12-.79.36-.21.24-.31.54-.31.9Z"/>
        <path d="m282.08,377.78h.92v3.98h-.92v-.42c-.38.35-.79.53-1.22.53-.55,0-1.01-.2-1.36-.6-.36-.41-.53-.91-.53-1.52s.18-1.09.53-1.49c.36-.4.8-.6,1.34-.6.46,0,.88.19,1.25.57v-.46Zm-2.18,1.98c0,.38.1.69.31.93.21.24.47.36.79.36.34,0,.62-.12.82-.35.21-.24.31-.55.31-.92s-.1-.68-.31-.92c-.21-.24-.48-.36-.82-.36-.32,0-.58.12-.79.36-.21.24-.31.54-.31.9Z"/>
        <path d="m285.49,381.02l-1.79-3.24h1.07l1.22,2.29,1.14-2.29h1.04l-3.17,6.14h-1.05l1.55-2.9Z"/>
      </g>
    </g>
  </g>
  <g id="c" data-name="Knobs">
    <circle cx="192.83" cy="100.53" r="11.34"/>
    <circle cx="192.83" cy="160.1" r="11.34"/>
    <circle cx="192.83" cy="219.67" r="11.34"/>
    <circle cx="192.83" cy="278.24" r="11.34"/>
    <circle cx="257.13" cy="75.53" r="18.39"/>
    <circle cx="257.13" cy="135.1" r="18.39"/>
    <circle cx="257.13" cy="194.67" r="18.39"/>
    <circle cx="257.13" cy="254.24" r="18.39"/>
    <circle cx="192.83" cy="339.76" r="11.34"/>
    <circle cx="231.1" cy="339.76" r="11.34"/>
    <circle cx="269.37" cy="339.76" r="11.34"/>
    <circle cx="269.47" cy="303.04" r="11.34"/>
    <circle cx="274.78" cy="54.36" r="2.83"/>
    <circle cx="242.22" cy="325.59" r="2.83"/>
    <circle cx="274.95" cy="173.86" r="2.83"/>
    <circle cx="221.09" cy="89.03" r="7.09" style="fill: red;"/>
    <circle cx="221.09" cy="148.39" r="7.09" style="fill: red;"/>
    <circle cx="221.09" cy="207.74" r="7.09" style="fill: red;"/>
    <circle cx="221.09" cy="267.1" r="7.09" style="fill: red;"/>
  </g>
  <g id="d" data-name="Labels 3">
    <g>
      <path d="m248.44,98.01v4.53h1.55v.75h-2.35v-5.28h.8Z"/>
      <path d="m253.63,101.8h-2.39c.02.27.11.49.27.65.16.16.36.24.6.24.19,0,.35-.05.48-.14.12-.09.26-.26.42-.51l.65.36c-.1.17-.21.32-.32.44-.11.12-.23.22-.36.3-.13.08-.27.14-.41.17-.15.04-.31.05-.48.05-.5,0-.9-.16-1.2-.48-.3-.32-.45-.75-.45-1.28s.15-.95.44-1.28c.29-.32.68-.48,1.17-.48s.88.16,1.16.47c.28.31.42.74.42,1.29v.18Zm-.79-.63c-.11-.41-.37-.62-.78-.62-.09,0-.18.01-.26.04-.08.03-.16.07-.22.12-.07.05-.12.12-.17.19s-.08.16-.11.26h1.54Z"/>
      <path d="m254.47,99.96h.77v.31c.27-.27.57-.4.91-.4.39,0,.69.12.91.37.19.21.28.55.28,1.02v2.04h-.77v-1.86c0-.33-.04-.55-.14-.68-.09-.13-.25-.19-.49-.19-.25,0-.44.08-.54.25-.11.17-.16.46-.16.87v1.61h-.77v-3.33Z"/>
      <path d="m261.53,103.21c0,.16,0,.3-.02.42,0,.12-.02.22-.04.32-.05.25-.16.47-.32.65-.3.35-.71.52-1.24.52-.44,0-.81-.12-1.1-.36-.3-.25-.47-.59-.51-1.02h.77c.03.16.08.29.15.38.16.21.39.31.7.31.56,0,.84-.35.84-1.04v-.46c-.31.31-.66.47-1.06.47-.45,0-.82-.16-1.11-.49-.29-.33-.44-.75-.44-1.25s.14-.9.41-1.24c.29-.36.68-.54,1.16-.54.42,0,.77.16,1.05.47v-.38h.77v3.25Zm-.74-1.58c0-.32-.09-.58-.26-.78-.17-.2-.4-.3-.67-.3-.29,0-.52.11-.69.32-.15.19-.23.44-.23.75s.08.55.23.75c.17.21.4.32.69.32s.53-.11.7-.32c.16-.19.24-.44.24-.75Z"/>
      <path d="m263.29,100.67v2.61h-.77v-2.61h-.33v-.72h.33v-1.22h.77v1.22h.6v.72h-.6Z"/>
      <path d="m264.55,97.51h.77v2.72c.27-.25.58-.37.91-.37.38,0,.68.12.9.37.19.21.29.55.29,1.02v2.04h-.77v-1.97c0-.27-.05-.46-.14-.58-.09-.12-.25-.18-.46-.18-.27,0-.46.08-.57.25-.11.17-.16.46-.16.87v1.61h-.77v-5.77Z"/>
    </g>
    <g>
      <path d="m243.88,157.18h-1.84v1.27h1.77v.75h-1.77v2.51h-.8v-5.28h2.64v.75Z"/>
      <path d="m247.64,160.22h-2.39c.02.27.11.49.27.65.16.16.36.24.6.24.19,0,.35-.05.48-.14.12-.09.26-.26.42-.51l.65.36c-.1.17-.21.32-.32.44-.11.12-.23.22-.36.3-.13.08-.27.14-.41.17-.15.04-.31.05-.48.05-.5,0-.9-.16-1.2-.48-.3-.32-.45-.75-.45-1.28s.15-.95.44-1.28c.29-.32.68-.48,1.17-.48s.88.16,1.16.47c.28.31.42.74.42,1.29v.18Zm-.79-.63c-.11-.41-.37-.62-.78-.62-.09,0-.18.01-.26.04-.08.03-.16.07-.22.12-.07.05-.12.12-.17.19s-.08.16-.11.26h1.54Z"/>
      <path d="m251.52,160.22h-2.39c.02.27.11.49.27.65.16.16.36.24.61.24.19,0,.35-.05.47-.14.12-.09.26-.26.42-.51l.65.36c-.1.17-.21.32-.32.44-.11.12-.23.22-.36.3-.13.08-.27.14-.41.17-.15.04-.31.05-.48.05-.5,0-.9-.16-1.2-.48-.3-.32-.45-.75-.45-1.28s.15-.95.44-1.28c.29-.32.68-.48,1.17-.48s.88.16,1.16.47c.28.31.42.74.42,1.29v.18Zm-.79-.63c-.11-.41-.37-.62-.78-.62-.09,0-.18.01-.26.04-.08.03-.16.07-.22.12-.07.05-.12.12-.17.19s-.08.16-.11.26h1.54Z"/>
      <path d="m254.81,155.93h.77v5.77h-.77v-.35c-.3.3-.65.44-1.03.44-.46,0-.83-.17-1.13-.5-.3-.34-.45-.76-.45-1.27s.15-.91.45-1.24c.3-.33.67-.5,1.12-.5.39,0,.74.16,1.05.48v-2.83Zm-1.83,4.1c0,.32.09.58.26.78.17.2.4.3.66.3.28,0,.51-.1.69-.29.17-.2.26-.46.26-.77s-.09-.57-.26-.77c-.18-.2-.4-.3-.68-.3-.26,0-.49.1-.66.3-.18.2-.26.45-.26.75Z"/>
      <path d="m257.32,155.93v2.83c.31-.32.66-.48,1.05-.48.45,0,.82.17,1.12.5.3.33.45.75.45,1.24s-.15.94-.45,1.27c-.3.33-.68.5-1.13.5-.39,0-.73-.15-1.03-.44v.35h-.77v-5.77h.77Zm1.83,4.13c0-.32-.09-.58-.26-.78-.17-.21-.4-.31-.66-.31-.28,0-.51.1-.69.3-.18.2-.26.45-.26.77s.09.58.26.78c.17.2.4.3.68.3.27,0,.49-.1.66-.3.18-.2.27-.45.27-.75Z"/>
      <path d="m263.21,158.38h.77v3.33h-.77v-.35c-.32.3-.66.44-1.02.44-.46,0-.84-.17-1.14-.5-.3-.34-.45-.76-.45-1.27s.15-.92.45-1.25c.3-.33.67-.5,1.12-.5.39,0,.73.16,1.04.48v-.39Zm-1.83,1.65c0,.32.09.58.26.78.17.2.4.3.66.3.28,0,.51-.1.69-.29.17-.2.26-.46.26-.77s-.09-.57-.26-.77c-.18-.2-.4-.3-.68-.3-.26,0-.49.1-.66.3-.18.2-.26.45-.26.75Z"/>
      <path d="m267.54,158.52v1.02c-.17-.21-.33-.36-.47-.44-.14-.08-.3-.12-.48-.12-.29,0-.53.1-.72.3s-.29.46-.29.76.09.57.28.77c.19.2.42.3.71.3.18,0,.35-.04.49-.12.14-.08.3-.23.48-.45v1.02c-.31.16-.62.24-.94.24-.51,0-.95-.17-1.29-.5-.35-.33-.52-.75-.52-1.25s.18-.92.53-1.26c.35-.34.78-.51,1.29-.51.33,0,.64.08.93.24Z"/>
      <path d="m269.23,155.93v3.52l1.08-1.08h1.03l-1.45,1.4,1.55,1.93h-1l-1.1-1.4-.12.12v1.28h-.77v-5.77h.77Z"/>
    </g>
    <g>
      <path d="m244.83,224.39v-5.28h1.11c.53,0,.95.05,1.26.16.33.1.63.28.9.52.54.5.82,1.15.82,1.96s-.28,1.47-.85,1.97c-.29.25-.58.42-.9.52-.29.1-.71.15-1.24.15h-1.09Zm.8-.75h.36c.36,0,.66-.04.89-.11.24-.08.45-.21.64-.38.39-.36.59-.82.59-1.4s-.19-1.05-.58-1.41c-.35-.32-.86-.48-1.54-.48h-.36v3.78Z"/>
      <path d="m249.65,219.68c0-.13.05-.25.15-.35.1-.1.21-.15.35-.15s.26.05.36.15c.1.1.15.21.15.35s-.05.26-.15.36c-.1.1-.21.15-.35.15s-.26-.05-.36-.15c-.1-.1-.15-.22-.15-.36Zm.89,1.38v3.33h-.77v-3.33h.77Z"/>
      <path d="m253.45,221.63l-.64.34c-.1-.21-.22-.31-.37-.31-.07,0-.13.02-.18.07-.05.05-.08.11-.08.18,0,.13.15.25.44.38.41.17.68.34.82.49.14.15.21.35.21.6,0,.32-.12.59-.36.81-.23.21-.51.31-.83.31-.56,0-.95-.27-1.19-.82l.66-.3c.09.16.16.26.21.3.09.09.21.13.33.13.26,0,.39-.12.39-.36,0-.14-.1-.26-.3-.38-.08-.04-.16-.08-.23-.11-.08-.04-.16-.07-.24-.11-.22-.11-.38-.22-.47-.33-.12-.14-.17-.32-.17-.54,0-.29.1-.53.3-.72.2-.19.45-.28.74-.28.43,0,.74.22.95.66Z"/>
      <path d="m255.15,221.78v2.61h-.77v-2.61h-.33v-.72h.33v-1.22h.77v1.22h.6v.72h-.6Z"/>
      <path d="m258.78,221.06h.77v3.33h-.77v-.35c-.32.3-.66.44-1.02.44-.46,0-.84-.17-1.14-.5-.3-.34-.45-.76-.45-1.27s.15-.92.45-1.25c.3-.33.67-.5,1.12-.5.39,0,.74.16,1.04.48v-.39Zm-1.83,1.65c0,.32.08.58.26.78.18.2.4.3.66.3.29,0,.52-.1.69-.29.18-.2.26-.46.26-.77s-.09-.57-.26-.77c-.17-.2-.4-.3-.68-.3-.26,0-.49.1-.66.3-.17.2-.26.45-.26.75Z"/>
      <path d="m260.53,221.06h.77v.31c.27-.27.57-.4.91-.4.39,0,.69.12.91.37.19.21.28.55.28,1.02v2.04h-.77v-1.86c0-.33-.04-.55-.14-.68-.09-.13-.25-.19-.49-.19-.25,0-.44.08-.54.25-.11.17-.16.46-.16.87v1.61h-.77v-3.33Z"/>
      <path d="m266.95,221.2v1.02c-.17-.21-.33-.36-.47-.44-.14-.08-.3-.12-.48-.12-.29,0-.53.1-.72.3-.19.2-.29.46-.29.76s.09.57.28.77c.19.2.42.3.71.3.18,0,.35-.04.49-.12.14-.08.3-.23.48-.45v1.02c-.31.16-.62.24-.94.24-.51,0-.95-.17-1.29-.5-.35-.33-.52-.75-.52-1.25s.18-.92.53-1.26c.35-.34.78-.51,1.29-.51.33,0,.64.08.93.24Z"/>
      <path d="m270.73,222.91h-2.39c.02.27.11.49.27.65.16.16.36.24.6.24.19,0,.35-.05.48-.14.12-.09.26-.26.42-.51l.65.36c-.1.17-.21.32-.32.44-.11.12-.23.22-.36.3-.13.08-.27.14-.41.17-.15.04-.31.05-.48.05-.5,0-.9-.16-1.2-.48-.3-.32-.45-.75-.45-1.28s.15-.95.44-1.28c.29-.32.68-.48,1.17-.48s.88.16,1.16.47c.28.31.42.74.42,1.29v.18Zm-.79-.63c-.11-.41-.37-.62-.78-.62-.09,0-.18.01-.26.04s-.16.07-.22.12-.12.12-.17.19-.08.16-.11.26h1.54Z"/>
    </g>
    <g>
      <path d="m191.54,191.02l1.63,2.25h-.97l-1.51-2.16h-.14v2.16h-.8v-5.28h.93c.7,0,1.2.13,1.51.39.34.29.51.68.51,1.16,0,.37-.11.69-.32.96s-.5.44-.85.52Zm-.99-.6h.25c.75,0,1.13-.29,1.13-.86,0-.54-.37-.81-1.1-.81h-.28v1.67Z"/>
      <path d="m196.74,191.78h-2.39c.02.27.11.49.27.65.16.16.36.24.6.24.19,0,.35-.05.48-.14.12-.09.26-.26.42-.51l.65.36c-.1.17-.21.32-.32.44-.11.12-.23.22-.36.3-.13.08-.27.14-.41.17s-.31.05-.48.05c-.5,0-.9-.16-1.2-.48-.3-.32-.45-.75-.45-1.28s.15-.95.44-1.28c.29-.32.68-.48,1.17-.48s.88.16,1.16.47c.28.31.42.74.42,1.29v.18Zm-.79-.63c-.11-.41-.37-.62-.78-.62-.09,0-.18.01-.26.04-.08.03-.16.07-.22.12-.07.05-.12.12-.17.19s-.08.16-.11.26h1.54Z"/>
      <path d="m197.88,189.94l.86,1.87.86-1.87h.86l-1.73,3.56-1.72-3.56h.86Z"/>
      <path d="m203.89,191.78h-2.39c.02.27.11.49.27.65.16.16.36.24.6.24.19,0,.35-.05.48-.14.12-.09.26-.26.42-.51l.65.36c-.1.17-.21.32-.32.44-.11.12-.23.22-.36.3-.13.08-.27.14-.41.17s-.31.05-.48.05c-.5,0-.9-.16-1.2-.48-.3-.32-.45-.75-.45-1.28s.15-.95.44-1.28c.29-.32.68-.48,1.17-.48s.88.16,1.16.47c.28.31.42.74.42,1.29v.18Zm-.79-.63c-.11-.41-.37-.62-.78-.62-.09,0-.18.01-.26.04-.08.03-.16.07-.22.12-.07.05-.12.12-.17.19s-.08.16-.11.26h1.54Z"/>
      <path d="m204.73,189.94h.77v.3c.14-.15.27-.25.38-.3.11-.06.24-.09.4-.09.2,0,.41.07.64.2l-.35.7c-.15-.1-.29-.16-.43-.16-.42,0-.63.32-.63.95v1.73h-.77v-3.33Z"/>
      <path d="m209.29,190.5l-.64.34c-.1-.21-.22-.31-.37-.31-.07,0-.13.02-.18.07-.05.05-.08.11-.08.18,0,.13.15.25.44.38.41.18.68.34.82.49s.21.35.21.6c0,.32-.12.59-.36.81-.23.21-.51.31-.83.31-.56,0-.95-.27-1.19-.82l.66-.3c.09.16.16.26.21.3.09.09.21.13.33.13.26,0,.39-.12.39-.36,0-.14-.1-.26-.3-.38-.08-.04-.15-.08-.23-.11s-.16-.07-.24-.11c-.22-.11-.38-.22-.47-.33-.12-.14-.17-.32-.17-.54,0-.29.1-.53.3-.72.2-.19.45-.28.74-.28.43,0,.74.22.95.66Z"/>
      <path d="m213.22,191.78h-2.39c.02.27.11.49.27.65.16.16.36.24.6.24.19,0,.35-.05.48-.14.12-.09.26-.26.42-.51l.65.36c-.1.17-.21.32-.32.44-.11.12-.23.22-.36.3-.13.08-.27.14-.41.17s-.31.05-.48.05c-.5,0-.9-.16-1.2-.48-.3-.32-.45-.75-.45-1.28s.15-.95.44-1.28c.29-.32.68-.48,1.17-.48s.88.16,1.16.47c.28.31.42.74.42,1.29v.18Zm-.79-.63c-.11-.41-.37-.62-.78-.62-.09,0-.18.01-.26.04-.08.03-.16.07-.22.12-.07.05-.12.12-.17.19s-.08.16-.11.26h1.54Z"/>
      <path d="m217.83,188.74v4.53h-.8v-4.53h-1.21v-.75h3.22v.75h-1.21Z"/>
      <path d="m221.76,189.94h.77v3.33h-.77v-.35c-.32.3-.66.44-1.02.44-.46,0-.84-.17-1.14-.5-.3-.34-.45-.76-.45-1.27s.15-.92.45-1.25.67-.5,1.12-.5c.39,0,.73.16,1.04.48v-.39Zm-1.83,1.65c0,.32.09.58.26.78.18.2.4.3.66.3.28,0,.52-.1.69-.29.18-.2.26-.46.26-.77s-.09-.57-.26-.77c-.18-.2-.4-.3-.68-.3-.26,0-.49.1-.66.3-.18.2-.26.45-.26.75Z"/>
      <path d="m224.27,195.08h-.77v-5.14h.77v.36c.3-.3.65-.45,1.03-.45.46,0,.83.17,1.13.51.3.33.45.76.45,1.27s-.15.92-.45,1.25c-.3.33-.67.5-1.12.5-.39,0-.74-.16-1.05-.47v2.18Zm1.83-3.46c0-.32-.09-.58-.26-.78-.18-.2-.4-.3-.66-.3-.28,0-.51.1-.69.29s-.26.45-.26.77.09.57.26.77c.17.2.4.3.68.3.27,0,.49-.1.66-.3.18-.2.27-.45.27-.75Z"/>
    </g>
    <g>
      <path d="m190.16,245.93h-1.84v1.27h1.77v.75h-1.77v2.51h-.8v-5.28h2.64v.75Z"/>
      <path d="m190.72,248.77c0-.48.17-.89.52-1.23.34-.34.76-.51,1.26-.51s.92.17,1.26.51c.34.34.51.76.51,1.25s-.17.92-.52,1.25c-.35.33-.77.5-1.27.5s-.92-.17-1.25-.51c-.34-.34-.51-.76-.51-1.27Zm.79.01c0,.33.09.6.27.79.18.2.42.29.72.29s.54-.1.72-.29c.18-.19.27-.45.27-.78s-.09-.58-.27-.78c-.18-.2-.42-.29-.72-.29s-.53.1-.71.29c-.18.2-.27.45-.27.76Z"/>
      <path d="m195.08,247.13h.77v.3c.14-.15.27-.25.38-.3.11-.06.24-.09.4-.09.2,0,.41.07.64.2l-.35.7c-.15-.1-.29-.16-.43-.16-.42,0-.63.32-.63.95v1.73h-.77v-3.33Z"/>
      <path d="m198.44,247.13l.87,1.9.94-2.21.95,2.21.86-1.9h.86l-1.74,3.58-.93-2.14-.94,2.14-1.74-3.58h.86Z"/>
      <path d="m205.78,247.13h.77v3.33h-.77v-.35c-.32.3-.66.44-1.02.44-.46,0-.84-.17-1.14-.5-.3-.34-.45-.76-.45-1.27s.15-.92.45-1.25c.3-.33.67-.5,1.12-.5.39,0,.73.16,1.04.48v-.39Zm-1.83,1.65c0,.32.09.58.26.78.18.2.4.3.66.3.28,0,.52-.1.69-.29.18-.2.26-.46.26-.77s-.09-.57-.26-.77c-.18-.2-.4-.3-.68-.3-.26,0-.49.1-.66.3-.18.2-.26.45-.26.75Z"/>
      <path d="m207.52,247.13h.77v.3c.14-.15.27-.25.38-.3.11-.06.24-.09.4-.09.2,0,.41.07.64.2l-.35.7c-.15-.1-.29-.16-.43-.16-.42,0-.63.32-.63.95v1.73h-.77v-3.33Z"/>
      <path d="m212.55,244.69h.77v5.77h-.77v-.35c-.3.3-.65.44-1.03.44-.46,0-.83-.17-1.13-.5-.3-.34-.45-.76-.45-1.27s.15-.91.45-1.24c.3-.33.67-.5,1.12-.5.39,0,.74.16,1.05.48v-2.83Zm-1.83,4.1c0,.32.09.58.26.78.18.2.4.3.66.3.28,0,.52-.1.69-.29.18-.2.26-.46.26-.77s-.09-.57-.26-.77c-.18-.2-.4-.3-.68-.3-.26,0-.49.1-.66.3-.18.2-.26.45-.26.75Z"/>
      <path d="m218.06,245.93v4.53h-.8v-4.53h-1.21v-.75h3.22v.75h-1.21Z"/>
      <path d="m221.99,247.13h.77v3.33h-.77v-.35c-.32.3-.66.44-1.02.44-.46,0-.84-.17-1.14-.5-.3-.34-.45-.76-.45-1.27s.15-.92.45-1.25c.3-.33.67-.5,1.12-.5.39,0,.73.16,1.04.48v-.39Zm-1.83,1.65c0,.32.09.58.26.78.18.2.4.3.66.3.28,0,.52-.1.69-.29.18-.2.26-.46.26-.77s-.09-.57-.26-.77c-.18-.2-.4-.3-.68-.3-.26,0-.49.1-.66.3-.18.2-.26.45-.26.75Z"/>
      <path d="m224.5,252.27h-.77v-5.14h.77v.36c.3-.3.65-.46,1.03-.46.46,0,.83.17,1.13.51.3.33.45.76.45,1.27s-.15.92-.45,1.25c-.3.33-.67.5-1.12.5-.39,0-.74-.16-1.05-.47v2.18Zm1.83-3.46c0-.32-.09-.58-.26-.78-.18-.2-.4-.3-.66-.3-.28,0-.51.1-.69.29-.18.2-.26.45-.26.77s.09.57.26.77c.17.2.4.3.68.3.27,0,.49-.1.66-.3.18-.2.27-.45.27-.75Z"/>
    </g>
    <g>
      <path d="m245.32,281.57v-5.28h1.11c.53,0,.95.05,1.26.16.33.1.63.28.9.52.54.5.82,1.15.82,1.96s-.28,1.47-.85,1.97c-.28.25-.58.42-.9.52-.29.1-.71.15-1.24.15h-1.09Zm.8-.75h.36c.36,0,.66-.04.89-.11.24-.08.45-.21.64-.38.39-.36.59-.82.59-1.4s-.19-1.05-.58-1.41c-.35-.32-.86-.48-1.54-.48h-.36v3.78Z"/>
      <path d="m250.14,276.85c0-.13.05-.25.15-.35s.22-.15.35-.15.26.05.36.15c.1.1.15.21.15.35s-.05.26-.15.36c-.1.1-.21.15-.35.15s-.26-.05-.36-.15-.15-.22-.15-.36Zm.88,1.38v3.33h-.77v-3.33h.77Z"/>
      <path d="m253.93,278.81l-.64.34c-.1-.21-.22-.31-.37-.31-.07,0-.13.02-.18.07-.05.05-.08.11-.08.18,0,.13.15.25.44.38.41.17.68.34.82.49.14.15.21.35.21.6,0,.32-.12.59-.36.81-.23.21-.51.31-.83.31-.56,0-.95-.27-1.19-.82l.66-.3c.09.16.16.26.21.3.09.09.21.13.33.13.26,0,.39-.12.39-.36,0-.14-.1-.26-.3-.38-.08-.04-.15-.08-.23-.11-.08-.04-.16-.07-.24-.11-.22-.11-.38-.22-.47-.33-.12-.14-.17-.32-.17-.54,0-.29.1-.53.3-.72.2-.19.45-.28.74-.28.43,0,.74.22.95.66Z"/>
      <path d="m255.63,278.96v2.61h-.77v-2.61h-.33v-.72h.33v-1.22h.77v1.22h.6v.72h-.6Z"/>
      <path d="m259.27,278.24h.77v3.33h-.77v-.35c-.32.3-.66.44-1.02.44-.46,0-.84-.17-1.14-.5-.3-.34-.45-.76-.45-1.27s.15-.92.45-1.25c.3-.33.67-.5,1.12-.5.39,0,.73.16,1.04.48v-.39Zm-1.83,1.65c0,.32.09.58.26.78.17.2.4.3.66.3.28,0,.51-.1.69-.29.17-.2.26-.46.26-.77s-.09-.57-.26-.77c-.18-.2-.4-.3-.68-.3-.26,0-.49.1-.66.3-.18.2-.26.45-.26.75Z"/>
      <path d="m261.01,278.24h.77v.31c.27-.27.57-.4.91-.4.39,0,.69.12.91.37.19.21.28.55.28,1.02v2.04h-.77v-1.86c0-.33-.05-.55-.14-.68-.09-.13-.25-.19-.49-.19-.26,0-.44.08-.54.25-.1.17-.16.46-.16.87v1.61h-.77v-3.33Z"/>
      <path d="m267.44,278.38v1.02c-.18-.21-.33-.36-.47-.44-.14-.08-.3-.12-.48-.12-.29,0-.53.1-.72.3-.19.2-.29.46-.29.76s.09.57.28.77c.19.2.42.3.71.3.18,0,.35-.04.49-.12.14-.08.3-.23.48-.45v1.02c-.31.16-.62.24-.94.24-.52,0-.95-.17-1.29-.5-.35-.33-.52-.75-.52-1.25s.17-.92.53-1.26c.35-.34.78-.51,1.29-.51.33,0,.64.08.93.24Z"/>
      <path d="m271.22,280.08h-2.39c.02.27.11.49.27.65.16.16.36.24.61.24.19,0,.35-.05.47-.14.12-.09.26-.26.42-.51l.65.36c-.1.17-.21.32-.32.44-.11.12-.23.22-.36.3-.13.08-.27.14-.41.17-.15.04-.31.05-.48.05-.5,0-.9-.16-1.2-.48-.3-.32-.45-.75-.45-1.28s.15-.95.44-1.28c.29-.32.68-.48,1.17-.48s.88.16,1.16.47c.28.31.42.74.42,1.29v.18Zm-.79-.63c-.11-.41-.37-.62-.78-.62-.09,0-.18.01-.26.04s-.16.07-.22.12c-.07.05-.12.12-.17.19s-.08.16-.11.26h1.54Z"/>
    </g>
    <g>
      <path d="m257.21,318.66h.77v.3c.14-.15.27-.25.38-.3.11-.06.24-.08.4-.08.2,0,.41.07.64.2l-.35.71c-.15-.11-.29-.16-.43-.16-.42,0-.63.32-.63.95v1.73h-.77v-3.33Z"/>
      <path d="m262.81,320.51h-2.39c.02.27.11.49.27.65.16.16.36.24.6.24.19,0,.35-.05.48-.14.12-.09.26-.26.42-.51l.65.36c-.1.17-.21.32-.32.44-.11.12-.23.22-.36.3-.13.08-.27.14-.41.17-.15.04-.31.05-.48.05-.5,0-.9-.16-1.2-.48-.3-.32-.45-.75-.45-1.28s.15-.95.44-1.28c.29-.32.68-.48,1.17-.48s.88.16,1.16.47c.28.31.42.74.42,1.29v.18Zm-.79-.63c-.11-.41-.37-.62-.78-.62-.09,0-.18.01-.26.04-.08.03-.16.07-.22.12-.07.05-.12.12-.17.19-.05.07-.08.16-.11.26h1.54Z"/>
      <path d="m263.95,318.66l.86,1.87.86-1.87h.87l-1.73,3.56-1.72-3.56h.86Z"/>
      <path d="m269.96,320.51h-2.39c.02.27.11.49.27.65.16.16.36.24.6.24.19,0,.35-.05.48-.14.12-.09.26-.26.42-.51l.65.36c-.1.17-.21.32-.32.44-.11.12-.23.22-.36.3-.13.08-.27.14-.41.17-.15.04-.31.05-.48.05-.5,0-.9-.16-1.2-.48-.3-.32-.45-.75-.45-1.28s.15-.95.44-1.28c.29-.32.68-.48,1.17-.48s.88.16,1.16.47c.28.31.42.74.42,1.29v.18Zm-.79-.63c-.11-.41-.37-.62-.78-.62-.09,0-.18.01-.26.04-.08.03-.16.07-.22.12-.07.05-.12.12-.17.19-.05.07-.08.16-.11.26h1.54Z"/>
      <path d="m270.81,318.66h.77v.3c.14-.15.27-.25.38-.3.11-.06.24-.08.4-.08.2,0,.42.07.64.2l-.35.71c-.15-.11-.29-.16-.43-.16-.42,0-.63.32-.63.95v1.73h-.77v-3.33Z"/>
      <path d="m275.36,319.23l-.64.34c-.1-.21-.22-.31-.37-.31-.07,0-.13.02-.18.07-.05.05-.08.11-.08.18,0,.13.15.25.44.38.41.18.68.34.82.49.14.15.21.35.21.6,0,.32-.12.59-.36.81-.23.21-.51.31-.83.31-.56,0-.95-.27-1.19-.82l.66-.3c.09.16.16.26.21.3.09.09.21.13.33.13.26,0,.39-.12.39-.36,0-.14-.1-.26-.3-.38-.08-.04-.15-.08-.23-.11-.08-.04-.16-.07-.24-.11-.22-.11-.38-.22-.47-.33-.12-.14-.17-.32-.17-.54,0-.29.1-.53.3-.72.2-.19.45-.28.74-.28.43,0,.74.22.95.66Z"/>
      <path d="m279.3,320.51h-2.39c.02.27.11.49.27.65.16.16.36.24.6.24.19,0,.35-.05.48-.14.12-.09.26-.26.42-.51l.65.36c-.1.17-.21.32-.32.44-.11.12-.23.22-.36.3-.13.08-.27.14-.41.17-.15.04-.31.05-.48.05-.5,0-.9-.16-1.2-.48-.3-.32-.45-.75-.45-1.28s.15-.95.44-1.28c.29-.32.68-.48,1.17-.48s.88.16,1.16.47c.28.31.42.74.42,1.29v.18Zm-.79-.63c-.11-.41-.37-.62-.78-.62-.09,0-.18.01-.26.04-.08.03-.16.07-.22.12-.07.05-.12.12-.17.19-.05.07-.08.16-.11.26h1.54Z"/>
    </g>
    <g>
      <path d="m257.86,357.19v2.61h-.77v-2.61h-.27v-.72h.27v-1.29c0-.42.07-.72.22-.89.2-.24.49-.36.88-.36.14,0,.31.04.52.12v.79l-.08-.04c-.17-.08-.3-.13-.41-.13-.14,0-.23.05-.28.15-.05.1-.07.28-.07.55v1.1h.84v.72h-.84Z"/>
      <path d="m259.07,358.11c0-.48.17-.89.52-1.23.34-.34.76-.51,1.26-.51s.92.17,1.26.51c.34.34.51.76.51,1.25s-.17.92-.52,1.25c-.35.33-.77.5-1.27.5s-.92-.17-1.25-.51c-.34-.34-.51-.76-.51-1.27Zm.79.01c0,.33.09.6.27.79.18.2.42.29.72.29s.54-.1.72-.29c.18-.19.27-.45.27-.78s-.09-.58-.27-.78c-.18-.2-.42-.29-.72-.29s-.53.1-.71.29c-.18.2-.27.45-.27.76Z"/>
      <path d="m263.43,356.47h.77v.3c.14-.15.27-.25.38-.3.11-.06.24-.09.4-.09.2,0,.42.07.64.2l-.35.7c-.15-.1-.29-.16-.43-.16-.42,0-.63.32-.63.95v1.73h-.77v-3.33Z"/>
      <path d="m266.79,356.47l.87,1.9.94-2.21.95,2.21.86-1.9h.86l-1.74,3.58-.93-2.14-.94,2.14-1.74-3.58h.87Z"/>
      <path d="m274.13,356.47h.77v3.33h-.77v-.35c-.32.3-.66.44-1.02.44-.46,0-.84-.17-1.14-.5-.3-.34-.45-.76-.45-1.27s.15-.92.45-1.25c.3-.33.67-.5,1.12-.5.39,0,.74.16,1.04.48v-.39Zm-1.83,1.65c0,.32.08.58.26.78.18.2.4.3.66.3.29,0,.52-.1.69-.29.18-.2.26-.46.26-.77s-.09-.57-.26-.77c-.17-.2-.4-.3-.68-.3-.26,0-.49.1-.66.3-.17.2-.26.45-.26.75Z"/>
      <path d="m275.87,356.47h.77v.3c.14-.15.27-.25.38-.3.11-.06.24-.09.4-.09.2,0,.42.07.64.2l-.35.7c-.15-.1-.29-.16-.43-.16-.42,0-.63.32-.63.95v1.73h-.77v-3.33Z"/>
      <path d="m280.9,354.03h.77v5.77h-.77v-.35c-.3.3-.65.44-1.03.44-.46,0-.83-.17-1.13-.5-.3-.34-.45-.76-.45-1.27s.15-.91.45-1.24c.3-.33.67-.5,1.12-.5.39,0,.74.16,1.05.48v-2.83Zm-1.83,4.1c0,.32.08.58.26.78.18.2.4.3.66.3.29,0,.52-.1.69-.29.18-.2.26-.46.26-.77s-.09-.57-.26-.77c-.17-.2-.4-.3-.68-.3-.26,0-.49.1-.66.3-.17.2-.26.45-.26.75Z"/>
    </g>
    <g>
      <path d="m229.14,355.46v1.02c-.18-.21-.33-.36-.47-.44-.14-.08-.3-.12-.48-.12-.29,0-.53.1-.72.3-.19.2-.29.46-.29.76s.09.57.28.77c.19.2.42.3.71.3.18,0,.35-.04.49-.12.14-.08.3-.23.48-.45v1.02c-.31.16-.62.24-.94.24-.52,0-.95-.17-1.29-.5-.35-.33-.52-.75-.52-1.25s.18-.92.53-1.26.78-.51,1.29-.51c.33,0,.64.08.93.24Z"/>
      <path d="m230.65,352.88v5.77h-.77v-5.77h.77Z"/>
      <path d="m232.4,352.88v3.52l1.08-1.08h1.03l-1.45,1.4,1.55,1.93h-1l-1.1-1.4-.12.12v1.28h-.77v-5.77h.77Z"/>
    </g>
    <g>
      <path d="m188.91,354.64c0-.13.05-.25.15-.35.1-.1.22-.15.35-.15s.26.05.36.15c.1.1.15.21.15.35s-.05.26-.15.36c-.1.1-.21.15-.35.15s-.26-.05-.36-.15c-.1-.1-.15-.22-.15-.36Zm.89,1.38v3.33h-.77v-3.33h.77Z"/>
      <path d="m190.77,356.03h.77v.31c.27-.27.57-.4.91-.4.39,0,.69.12.91.37.19.21.28.55.28,1.02v2.04h-.77v-1.86c0-.33-.05-.55-.14-.68-.09-.13-.25-.19-.49-.19-.26,0-.44.08-.54.25-.1.17-.16.46-.16.87v1.61h-.77v-3.33Z"/>
    </g>
    <line x1="173.65" y1="187.47" x2="287.01" y2="164.8"/>
    <line x1="179.2" y1="306.33" x2="292.55" y2="283.66"/>
    <line x1="173.65" y1="383.04" x2="287.01" y2="360.37"/>
    <line x1="172.84" y1="64.86" x2="286.19" y2="42.19"/>
  </g>
</svg>